<?xml version="1.0" standalone="no"?>
<!DOCTYPE svg PUBLIC "-//W3C//DTD SVG 1.1//EN" "http://www.w3.org/Graphics/SVG/1.1/DTD/svg11.dtd" >
<svg xmlns="http://www.w3.org/2000/svg" xmlns:xlink="http://www.w3.org/1999/xlink" version="1.1">
<metadata>
Created by FontForge 20150102 at Thu Jan 22 07:47:23 2015
 By uniteet7
Copyright (c) The Font Bureau, Inc., 2003. All rights reserved.
</metadata>
<defs>
<font id="FontBureauInterstateBold" horiz-adv-x="800" >
  <font-face 
    font-family="FontBureauInterstateBold"
    font-weight="700"
    font-stretch="normal"
    units-per-em="1000"
    panose-1="2 0 5 3 3 0 0 2 0 4"
    ascent="800"
    descent="-200"
    x-height="525"
    cap-height="700"
    bbox="-62 -193 1385 910"
    underline-thickness="20"
    underline-position="-113"
    unicode-range="U+0020-FB02"
  />
<missing-glyph horiz-adv-x="500" 
 />
    <glyph glyph-name="fi" unicode="fi" horiz-adv-x="645" 
d="M583 647q0 -32 -23.5 -55.5t-55.5 -23.5t-55.5 23.5t-23.5 55.5t23.5 55.5t55.5 23.5t55.5 -23.5t23.5 -55.5zM338 600q-22 11 -48 11q-30 0 -40.5 -9.5t-10.5 -32.5v-44h89v-130h-89v-395h-138v395h-63v130h63v63q0 138 150 138q51 0 87 -15v-111zM573 0h-138v525h138
v-525z" />
    <glyph glyph-name="fl" unicode="fl" horiz-adv-x="645" 
d="M573 0h-138v660l138 69v-729zM338 600q-22 11 -48 11q-30 0 -40.5 -9.5t-10.5 -32.5v-44h89v-130h-89v-395h-138v395h-63v130h63v63q0 138 150 138q51 0 87 -15v-111z" />
    <glyph glyph-name=".notdef" horiz-adv-x="500" 
 />
    <glyph glyph-name=".null" horiz-adv-x="0" 
 />
    <glyph glyph-name="nonmarkingreturn" horiz-adv-x="333" 
 />
    <glyph glyph-name="space" unicode=" " horiz-adv-x="290" 
 />
    <glyph glyph-name="space" unicode="&#xa0;" horiz-adv-x="290" 
 />
    <glyph glyph-name="exclam" unicode="!" horiz-adv-x="340" 
d="M240 412l-23 -192h-94l-23 192v288h140v-288zM255 74q0 -34 -25.5 -59.5t-59.5 -25.5t-59.5 25.5t-25.5 59.5t25.5 59.5t59.5 25.5t59.5 -25.5t25.5 -59.5z" />
    <glyph glyph-name="quotedbl" unicode="&#x22;" horiz-adv-x="528" 
d="M471 700l-35 -327h-95l-35 327h165zM222 700l-35 -327h-95l-35 327h165z" />
    <glyph glyph-name="numbersign" unicode="#" horiz-adv-x="740" 
d="M690 140h-120v-140h-122v140h-156v-140h-122v140h-120v115h120v190h-120v115h120v140h122v-140h156v140h122v-140h120v-115h-120v-190h120v-115zM448 255v190h-156v-190h156z" />
    <glyph glyph-name="dollar" unicode="$" horiz-adv-x="655" 
d="M600 212q0 -183 -198 -213v-99h-140v99q-142 22 -209 122l101 90q69 -80 179 -80q64 0 93 16t29 55q0 35 -30 54t-126 41q-54 13 -89.5 26.5t-67.5 37t-47 59.5t-15 86q0 76 50 127t132 67v100h140v-101q103 -19 183 -103l-101 -98q-70 72 -159 72q-100 0 -100 -58
q0 -32 27.5 -48t113.5 -36q40 -9 67.5 -17.5t62 -26t55 -38.5t35 -55.5t14.5 -78.5z" />
    <glyph glyph-name="percent" unicode="%" horiz-adv-x="999" 
d="M407 494q0 -98 -52.5 -158t-133.5 -60t-132 58.5t-51 157.5q0 100 51 159.5t134 59.5q84 0 134 -59t50 -158zM774 700l-429 -700h-121l429 700h121zM961 207q0 -98 -52.5 -158t-133.5 -60t-132 58.5t-51 157.5q0 100 51 159.5t134 59.5q84 0 134 -59t50 -158zM295 492
q0 126 -73 126q-72 0 -72 -124q0 -126 73 -126q35 0 53.5 33t18.5 91zM849 205q0 126 -73 126q-72 0 -72 -124q0 -126 73 -126q35 0 53.5 33t18.5 91z" />
    <glyph glyph-name="ampersand" unicode="&#x26;" horiz-adv-x="700" 
d="M688 0h-160l-53 57q-83 -68 -204 -68q-110 0 -170 46.5t-60 139.5q0 70 36.5 118t106.5 83l-18 20q-61 68 -61 142q0 83 58 128t150 45q61 0 108 -17.5t101 -55.5l-67 -101q-66 50 -146 50q-31 0 -48.5 -12t-17.5 -34q0 -32 37 -76l193 -220q23 47 49 116l113 -36
q-34 -106 -79 -175zM395 144l-137 150q-77 -41 -77 -107q0 -34 27 -54t79 -20q65 0 108 31z" />
    <glyph glyph-name="quotesingle" unicode="'" horiz-adv-x="284" 
d="M227 700l-35 -327h-100l-35 327h170z" />
    <glyph glyph-name="parenleft" unicode="(" horiz-adv-x="370" 
d="M327 -48l-90 -62q-83 92 -128 187t-45 223q0 131 43.5 226t129.5 190l90 -62q-119 -154 -119 -349q0 -111 30.5 -194t88.5 -159z" />
    <glyph glyph-name="parenright" unicode=")" horiz-adv-x="370" 
d="M306 306q0 -131 -43.5 -226t-129.5 -190l-90 62q119 154 119 349q0 111 -30.5 194t-88.5 159l90 62q83 -92 128 -187t45 -223z" />
    <glyph glyph-name="asterisk" unicode="*" horiz-adv-x="500" 
d="M467 415l-53 -91l-122 82l11 -146h-106l10 148l-122 -82l-52 90l141 64l-141 65l52 91l122 -83l-10 147h106l-11 -146l122 83l53 -91l-144 -65z" />
    <glyph glyph-name="plus" unicode="+" horiz-adv-x="613" 
d="M558 279h-183v-190h-137v190h-183v130h183v190h137v-190h183v-130z" />
    <glyph glyph-name="comma" unicode="," horiz-adv-x="272" 
d="M228 169l-84 -295h-94l15 295h163z" />
    <glyph glyph-name="hyphen" unicode="-" horiz-adv-x="407" 
d="M347 294h-287v138h287v-138z" />
    <glyph glyph-name="hyphen" unicode="&#xad;" horiz-adv-x="407" 
d="M347 294h-287v138h287v-138z" />
    <glyph glyph-name="period" unicode="." horiz-adv-x="272" 
d="M230 83q0 -38 -28 -66t-66 -28t-66 28t-28 66t28 66t66 28t66 -28t28 -66z" />
    <glyph glyph-name="slash" unicode="/" horiz-adv-x="470" 
d="M466 790l-326 -880h-136l326 880h136z" />
    <glyph glyph-name="zero" unicode="0" horiz-adv-x="688" 
d="M638 352q0 -164 -77.5 -263.5t-217.5 -99.5t-216.5 98.5t-76.5 262.5t77 262.5t217 98.5t217 -98t77 -261zM496 350q0 100 -38 162t-115 62q-76 0 -113.5 -61t-37.5 -161t38 -163t114 -63t114 62t38 162z" />
    <glyph glyph-name="one" unicode="1" horiz-adv-x="385" 
d="M298 0h-139v506h-120v103q123 6 143 91h116v-700z" />
    <glyph glyph-name="two" unicode="2" horiz-adv-x="683" 
d="M611 0h-548q1 70 19 128.5t46 101t71.5 79t86.5 61t99 49.5q79 34 79 84q0 30 -28 50.5t-87 20.5q-111 0 -199 -84l-90 105q114 116 284 116q126 0 193 -51t67 -150q0 -55 -21.5 -95t-58 -66t-100.5 -56q-90 -41 -132.5 -78.5t-52.5 -79.5h372v-135z" />
    <glyph glyph-name="three" unicode="3" horiz-adv-x="645" 
d="M588 217q0 -111 -78 -169.5t-212 -58.5q-165 0 -277 134l106 86q79 -83 184 -83q135 0 135 89q0 80 -103 80h-83v137h75q82 0 82 71q0 30 -28 50.5t-89 20.5q-79 0 -137 -59l-102 93q51 54 107.5 78.5t133.5 24.5q113 0 185 -51.5t72 -146.5q0 -53 -23 -89t-58 -54
q44 -16 77 -53.5t33 -99.5z" />
    <glyph glyph-name="four" unicode="4" horiz-adv-x="695" 
d="M654 143h-92v-143h-135v143h-383v126l371 431h147v-427h92v-130zM430 540q-30 -41 -62 -79l-100 -117q-38 -46 -66 -73q10 0 63.5 1t75.5 1h86v114q0 22 1.5 82t1.5 71z" />
    <glyph glyph-name="five" unicode="5" horiz-adv-x="668" 
d="M616 244q0 -123 -79.5 -189t-212.5 -66q-153 0 -273 75l68 119q104 -59 205 -59q72 0 111 29.5t39 85.5q0 52 -33 78t-86 26q-78 0 -138 -42l-133 49l24 350h466v-135h-337l-8 -121q59 32 147 32q114 0 177 -64.5t63 -167.5z" />
    <glyph glyph-name="six" unicode="6" horiz-adv-x="663" 
d="M620 229q0 -113 -83 -176.5t-212 -63.5q-124 0 -201 71t-77 212q0 59 13.5 116.5t48 117t86.5 104t135.5 73t187.5 28.5v-136q-244 0 -305 -164q66 44 160 44q110 0 178.5 -57.5t68.5 -168.5zM478 224q0 104 -140 104q-146 0 -146 -105q0 -49 36 -76.5t103 -27.5
q69 0 108 28t39 77z" />
    <glyph glyph-name="seven" unicode="7" horiz-adv-x="631" 
d="M569 565q-232 -227 -232 -565h-143q0 331 206 567h-356v133h525v-135z" />
    <glyph glyph-name="eight" unicode="8" horiz-adv-x="702" 
d="M644 217q0 -106 -78.5 -167t-214.5 -61t-214.5 59t-78.5 162q0 122 111 170q-81 44 -81 123q0 100 74 154t189 54q111 0 187 -52.5t76 -149.5q0 -84 -81 -129q111 -51 111 -163zM474 506q0 37 -29 60.5t-94 23.5q-62 0 -92.5 -23.5t-30.5 -59.5q0 -35 32 -57.5t91 -22.5
q62 0 92.5 21.5t30.5 57.5zM504 212q0 100 -153 100q-77 0 -115 -26t-38 -73t42.5 -74t110.5 -27q72 0 112.5 26t40.5 74z" />
    <glyph glyph-name="nine" unicode="9" horiz-adv-x="663" 
d="M616 428q0 -59 -13.5 -116.5t-48 -117t-86.5 -104t-135.5 -73t-187.5 -28.5v136q244 0 305 164q-66 -44 -160 -44q-110 0 -178.5 57.5t-68.5 168.5q0 113 83 176.5t212 63.5q124 0 201 -71t77 -212zM471 477q0 49 -35.5 76.5t-103.5 27.5q-69 0 -108 -28t-39 -77
q0 -104 140 -104q146 0 146 105z" />
    <glyph glyph-name="colon" unicode=":" horiz-adv-x="272" 
d="M230 442q0 -38 -28 -66t-66 -28t-66 28t-28 66t28 66t66 28t66 -28t28 -66zM230 83q0 -38 -28 -66t-66 -28t-66 28t-28 66t28 66t66 28t66 -28t28 -66z" />
    <glyph glyph-name="semicolon" unicode=";" horiz-adv-x="272" 
d="M230 442q0 -38 -28 -66t-66 -28t-66 28t-28 66t28 66t66 28t66 -28t28 -66zM221 169l-84 -295h-94l15 295h163z" />
    <glyph glyph-name="less" unicode="&#x3c;" horiz-adv-x="450" 
d="M388 28l-331 269v94l331 269v-172l-187 -143l187 -144v-173z" />
    <glyph glyph-name="equal" unicode="=" horiz-adv-x="613" 
d="M533 398h-453v129h453v-129zM533 161h-453v129h453v-129z" />
    <glyph glyph-name="greater" unicode="&#x3e;" horiz-adv-x="450" 
d="M393 297l-331 -269v172l187 143l-187 144v173l331 -269v-94z" />
    <glyph glyph-name="question" unicode="?" horiz-adv-x="584" 
d="M546 507q0 -117 -101 -165q-63 -30 -84.5 -54t-23.5 -68h-137q0 75 30 122t111 84q38 17 51.5 32.5t13.5 42.5q0 73 -119 73q-96 0 -175 -84l-90 105q111 116 265 116q119 0 189 -51.5t70 -152.5zM354 74q0 -34 -25 -59.5t-60 -25.5t-60 25.5t-25 59.5t25 59.5t60 25.5
t60 -25.5t25 -59.5z" />
    <glyph glyph-name="at" unicode="@" horiz-adv-x="836" 
d="M779 360q0 -107 -40.5 -156.5t-110.5 -49.5q-77 0 -117 55q-53 -56 -128 -56q-59 0 -101.5 36t-42.5 102q0 61 44 94.5t113 33.5q42 0 78 -19v25q0 24 -15 39t-44 15q-56 0 -107 -26l-37 66q66 39 144 39q71 0 114 -35.5t43 -99.5v-143q0 -67 62 -67q87 0 87 148
q0 121 -87 207t-216 86q-131 0 -217 -86t-86 -217t86 -217.5t217 -86.5q71 0 130 29l24 -53q-75 -34 -154 -34q-157 0 -259 102t-102 259t102 259t259 102t259 -102.5t102 -248.5zM474 275v51q-31 18 -75 18q-63 0 -63 -53q0 -24 15.5 -39.5t47.5 -15.5q53 0 75 39z" />
    <glyph glyph-name="A" unicode="A" horiz-adv-x="750" 
d="M710 0h-154l-55 156h-256l-55 -156h-150l268 700h136zM453 289l-45 127q-27 78 -35 109q-8 -31 -35 -109l-45 -127h160z" />
    <glyph glyph-name="B" unicode="B" horiz-adv-x="710" 
d="M657 226q0 -108 -67 -167t-182 -59h-318v700h321q103 0 162.5 -48t59.5 -137q0 -91 -74 -136q98 -44 98 -153zM491 504q0 67 -86 67h-178v-133h185q79 0 79 66zM513 224q0 90 -100 90h-186v-181h186q50 0 75 24t25 67z" />
    <glyph glyph-name="C" unicode="C" horiz-adv-x="670" 
d="M620 556l-130 -60q-40 76 -128 76q-77 0 -121 -61t-44 -161q0 -97 44.5 -159.5t121.5 -62.5q46 0 77.5 21t59.5 68l118 -70q-77 -158 -259 -158q-138 0 -222 98t-84 263q0 160 87 260.5t224 100.5q181 0 256 -155z" />
    <glyph glyph-name="D" unicode="D" horiz-adv-x="707" 
d="M657 350q0 -72 -20 -131t-54 -99t-80 -67.5t-97.5 -40t-106.5 -12.5h-209v700h219q161 0 254.5 -84t93.5 -266zM513 350q0 109 -50 161.5t-159 52.5h-74v-428h69q107 0 160.5 57t53.5 157z" />
    <glyph glyph-name="E" unicode="E" horiz-adv-x="650" 
d="M591 0h-501v700h486v-137h-346v-121h201v-136h-201v-169h361v-137z" />
    <glyph glyph-name="F" unicode="F" horiz-adv-x="625" 
d="M591 563h-361v-132h211v-136h-211v-295h-140v700h501v-137z" />
    <glyph glyph-name="G" unicode="G" horiz-adv-x="698" 
d="M640 271q0 -132 -78 -207t-203 -75q-138 0 -222 98t-84 263q0 160 87 260.5t224 100.5q103 0 166 -44.5t99 -130.5l-133 -55q-22 45 -51.5 68t-82.5 23q-77 0 -121 -61t-44 -161q0 -99 44.5 -161.5t121.5 -62.5q123 0 137 106h-111v131h251v-92z" />
    <glyph glyph-name="H" unicode="H" horiz-adv-x="747" 
d="M657 0h-140v294h-287v-294h-140v700h140v-268h287v268h140v-700z" />
    <glyph glyph-name="I" unicode="I" horiz-adv-x="340" 
d="M240 0h-140v700h140v-700z" />
    <glyph glyph-name="J" unicode="J" horiz-adv-x="650" 
d="M565 292q0 -142 -66 -222.5t-199 -80.5q-102 0 -171.5 56t-96.5 151l137 37q21 -55 51 -80t80 -25q125 0 125 160v412h140v-408z" />
    <glyph glyph-name="K" unicode="K" horiz-adv-x="720" 
d="M700 0h-168l-190 338l-112 -132v-206h-140v700h140v-199q0 -67 -2 -111q11 18 55 71l196 239h169l-205 -242z" />
    <glyph glyph-name="L" unicode="L" horiz-adv-x="620" 
d="M581 0h-491v700h140v-562h351v-138z" />
    <glyph glyph-name="M" unicode="M" horiz-adv-x="835" 
d="M745 0h-140v257q0 20 1 81t1 73q-19 -49 -49 -116l-142 -311l-142 311q-30 67 -49 116q0 -12 1 -73t1 -81v-257h-137v700h135l146 -317q27 -58 48 -117q19 54 47 117l141 317h138v-700z" />
    <glyph glyph-name="N" unicode="N" horiz-adv-x="747" 
d="M657 0h-125l-257 382q-40 62 -49 79q0 -11 1 -71.5t1 -81.5v-308h-138v700h134l248 -370q40 -62 49 -79q0 11 -1 71.5t-1 81.5v296h138v-700z" />
    <glyph glyph-name="O" unicode="O" horiz-adv-x="719" 
d="M668 351q0 -167 -85.5 -264.5t-223.5 -97.5q-139 0 -223.5 96.5t-84.5 263.5t85.5 264.5t224.5 97.5q138 0 222.5 -96.5t84.5 -263.5zM524 349q0 105 -45.5 164t-120.5 59t-119 -58t-44 -163t45.5 -164t120.5 -59t119 58t44 163z" />
    <glyph glyph-name="P" unicode="P" horiz-adv-x="680" 
d="M637 478q0 -116 -69 -173t-184 -57h-154v-248h-140v700h306q105 0 173 -57.5t68 -164.5zM493 475q0 89 -102 89h-161v-180h163q100 0 100 91z" />
    <glyph glyph-name="Q" unicode="Q" horiz-adv-x="714" 
d="M661 350q0 -171 -95 -269l52 -76l-107 -70l-50 73q-47 -19 -104 -19q-141 0 -222.5 99.5t-81.5 261.5t81.5 261.5t222.5 99.5t222.5 -99.5t81.5 -261.5zM517 350q0 100 -39.5 161t-120.5 61t-120.5 -61t-39.5 -161q0 -102 41 -165.5t122 -63.5q9 0 23 2l-47 70l107 70
l45 -67q29 51 29 154z" />
    <glyph glyph-name="R" unicode="R" horiz-adv-x="714" 
d="M657 0h-161l-125 252h-141v-252h-140v700h326q105 0 173 -57.5t68 -164.5q0 -153 -134 -206zM513 475q0 89 -100 89h-183v-180h183q100 0 100 91z" />
    <glyph glyph-name="S" unicode="S" horiz-adv-x="661" 
d="M603 212q0 -104 -68.5 -163.5t-206.5 -59.5q-87 0 -159.5 34t-112.5 93l101 90q69 -80 179 -80q63 0 92.5 18t29.5 58q0 35 -30 54t-126 41q-54 13 -89.5 26.5t-67.5 37t-47 59.5t-15 86q0 93 71.5 149t178.5 56q150 0 255 -110l-101 -98q-70 72 -159 72q-52 0 -76 -18.5
t-24 -44.5q0 -32 27.5 -48t113.5 -36q40 -9 67.5 -17.5t62 -26t55 -38.5t35 -55.5t14.5 -78.5z" />
    <glyph glyph-name="T" unicode="T" horiz-adv-x="632" 
d="M587 562h-201v-562h-140v562h-201v138h542v-138z" />
    <glyph glyph-name="U" unicode="U" horiz-adv-x="737" 
d="M652 309q0 -152 -75 -236t-209 -84q-129 0 -206 84t-77 234v393h140v-391q0 -84 38.5 -133.5t104.5 -49.5q67 0 105.5 48.5t38.5 132.5v393h140v-391z" />
    <glyph glyph-name="V" unicode="V" horiz-adv-x="714" 
d="M674 700l-249 -700h-136l-249 700h155l132 -405q19 -58 33 -115q12 52 32 115l129 405h153z" />
    <glyph glyph-name="W" unicode="W" horiz-adv-x="881" 
d="M831 700l-146 -700h-137l-86 360q-16 66 -24 120q-6 -49 -23 -120l-88 -360h-131l-146 700h146l61 -341q12 -70 17 -115q8 49 24 115l82 341h122l83 -341q16 -66 24 -115q5 50 17 115l61 341h144z" />
    <glyph glyph-name="X" unicode="X" horiz-adv-x="702" 
d="M657 0h-167l-63 106q-47 79 -76 137q-18 -38 -76 -137l-63 -106h-167l222 358l-212 342h167l53 -90q47 -79 76 -137q27 55 76 137l53 90h167l-213 -342z" />
    <glyph glyph-name="Y" unicode="Y" horiz-adv-x="714" 
d="M692 700l-265 -423v-277h-140v274l-265 426h161l99 -166q47 -79 76 -137q27 55 76 137l99 166h159z" />
    <glyph glyph-name="Z" unicode="Z" horiz-adv-x="688" 
d="M620 0h-552v124l301 359q48 59 80 91q-56 -2 -142 -2h-219v128h527v-124l-298 -359q-48 -59 -80 -91q56 2 142 2h241v-128z" />
    <glyph glyph-name="bracketleft" unicode="[" horiz-adv-x="415" 
d="M352 -110h-257v810h257v-110h-122v-590h122v-110z" />
    <glyph glyph-name="backslash" unicode="\" horiz-adv-x="470" 
d="M466 -90h-136l-326 880h136z" />
    <glyph glyph-name="bracketright" unicode="]" horiz-adv-x="415" 
d="M320 -110h-257v110h122v590h-122v110h257v-810z" />
    <glyph glyph-name="asciicircum" unicode="^" horiz-adv-x="578" 
d="M531 382h-142l-101 186l-101 -186h-140l187 318h110z" />
    <glyph glyph-name="underscore" unicode="_" horiz-adv-x="500" 
d="M500 -187h-500v115h500v-115z" />
    <glyph glyph-name="grave" unicode="`" horiz-adv-x="500" 
d="M362 595h-117l-145 160h175z" />
    <glyph glyph-name="a" unicode="a" horiz-adv-x="556" 
d="M494 0h-138v35q-44 -46 -118 -46q-80 0 -138 48.5t-58 138.5q0 84 59.5 129t153.5 45q59 0 101 -21v26q0 29 -19.5 48t-55.5 19q-46 0 -76.5 -7.5t-67.5 -27.5l-53 96q92 53 197 53q97 0 155 -48.5t58 -135.5v-352zM356 154v66q-35 22 -96 22q-80 0 -80 -66
q0 -31 19.5 -50.5t60.5 -19.5q32 0 58 14t38 34z" />
    <glyph glyph-name="b" unicode="b" horiz-adv-x="562" 
d="M520 256q0 -120 -54 -193.5t-150 -73.5q-66 0 -111 41v-30h-138v660l138 69v-237q50 44 111 44q90 0 147 -70t57 -210zM380 253q0 153 -90 153q-51 0 -85 -44v-198q33 -45 93 -45q82 0 82 134z" />
    <glyph glyph-name="c" unicode="c" horiz-adv-x="537" 
d="M501 106q-43 -57 -92.5 -87t-122.5 -30q-104 0 -175 77t-71 196q0 120 71 197t181 77q132 0 208 -116l-91 -92q-26 37 -53.5 56t-66.5 19q-50 0 -79.5 -38.5t-29.5 -102.5q0 -63 30 -101.5t79 -38.5q68 0 124 67z" />
    <glyph glyph-name="d" unicode="d" horiz-adv-x="562" 
d="M493 0h-138v33q-50 -44 -111 -44q-90 0 -147 70t-57 210q0 120 54 193.5t150 73.5q66 0 111 -41v165l138 69v-729zM355 163v198q-33 45 -93 45q-82 0 -82 -134q0 -153 90 -153q51 0 85 44z" />
    <glyph glyph-name="e" unicode="e" horiz-adv-x="538" 
d="M495 262q0 -24 -2 -44h-314q3 -50 34.5 -74.5t73.5 -24.5q58 0 90 37l98 -82q-31 -40 -82.5 -62.5t-105.5 -22.5q-113 0 -180 74t-67 199q0 120 66.5 197t167.5 77q102 0 161.5 -78.5t59.5 -195.5zM361 322q-3 39 -27 66.5t-67 27.5q-36 0 -59 -26.5t-27 -67.5h180z" />
    <glyph glyph-name="f" unicode="f" horiz-adv-x="370" 
d="M338 600q-22 11 -48 11q-30 0 -40.5 -9.5t-10.5 -32.5v-44h89v-130h-89v-395h-138v395h-63v130h63v63q0 138 150 138q51 0 87 -15v-111z" />
    <glyph glyph-name="g" unicode="g" horiz-adv-x="562" 
d="M493 89q0 -137 -47 -202.5t-179 -79.5l-49 104q81 11 109 36t28 86q-50 -44 -111 -44q-90 0 -147 70t-57 210q0 120 54 193.5t150 73.5q66 0 111 -41v30h138v-436zM355 163v198q-33 45 -93 45q-82 0 -82 -134q0 -153 90 -153q51 0 85 44z" />
    <glyph glyph-name="h" unicode="h" horiz-adv-x="584" 
d="M522 0h-138v284q0 68 -22 95t-67 27t-67.5 -27t-22.5 -92v-287h-138v660l138 69v-239q44 46 123 46q98 0 146 -63t48 -177v-296z" />
    <glyph glyph-name="i" unicode="i" horiz-adv-x="282" 
d="M220 647q0 -32 -23.5 -55.5t-55.5 -23.5t-55.5 23.5t-23.5 55.5t23.5 55.5t55.5 23.5t55.5 -23.5t23.5 -55.5zM210 0h-138v525h138v-525z" />
    <glyph glyph-name="j" unicode="j" horiz-adv-x="282" 
d="M220 647q0 -32 -23.5 -55.5t-55.5 -23.5t-55.5 23.5t-23.5 55.5t23.5 55.5t55.5 23.5t55.5 -23.5t23.5 -55.5zM210 39q0 -112 -43.5 -162.5t-162.5 -69.5l-48 106q72 14 94 36.5t22 83.5v492h138v-486z" />
    <glyph glyph-name="k" unicode="k" horiz-adv-x="551" 
d="M523 0h-151l-100 242l-67 -83v-159h-138v660l138 69v-279q0 -60 -2 -112q25 37 56 77l85 110h163l-135 -167z" />
    <glyph glyph-name="l" unicode="l" horiz-adv-x="282" 
d="M210 0h-138v660l138 69v-729z" />
    <glyph glyph-name="m" unicode="m" horiz-adv-x="881" 
d="M819 0h-138v284q0 68 -20 95t-64 27t-64.5 -26.5t-20.5 -92.5v-287h-138v284q0 68 -20 95t-64 27t-64.5 -26.5t-20.5 -92.5v-287h-138v525h138v-35q44 46 115 46q50 0 82.5 -15.5t62.5 -51.5q65 67 167 67q187 0 187 -240v-296z" />
    <glyph glyph-name="n" unicode="n" horiz-adv-x="584" 
d="M522 0h-138v284q0 68 -22 95t-67 27t-67.5 -27t-22.5 -92v-287h-138v525h138v-35q44 46 123 46q98 0 146 -63t48 -177v-296z" />
    <glyph glyph-name="o" unicode="o" horiz-adv-x="555" 
d="M515 262q0 -120 -67.5 -196.5t-170.5 -76.5t-170 76.5t-67 196.5t67 197t170 77t170.5 -77t67.5 -197zM375 262q0 63 -25 102t-73 39t-72.5 -38.5t-24.5 -102.5q0 -63 24.5 -101.5t72.5 -38.5q47 0 72.5 40.5t25.5 99.5z" />
    <glyph glyph-name="p" unicode="p" horiz-adv-x="562" 
d="M520 256q0 -120 -54 -193.5t-150 -73.5q-66 0 -111 41v-154l-138 -69v718h138v-33q50 44 111 44q90 0 147 -70t57 -210zM380 253q0 153 -90 153q-51 0 -85 -44v-198q33 -45 93 -45q82 0 82 134z" />
    <glyph glyph-name="q" unicode="q" horiz-adv-x="562" 
d="M493 -124l-138 -69v226q-50 -44 -111 -44q-90 0 -147 70t-57 210q0 120 54 193.5t150 73.5q66 0 111 -41v30h138v-649zM355 163v198q-33 45 -93 45q-82 0 -82 -134q0 -153 90 -153q51 0 85 44z" />
    <glyph glyph-name="r" unicode="r" horiz-adv-x="428" 
d="M410 499l-36 -135q-37 34 -80 34q-44 0 -66.5 -25t-22.5 -89v-284h-138v525h138v-35q44 46 108 46q62 0 97 -37z" />
    <glyph glyph-name="s" unicode="s" horiz-adv-x="537" 
d="M482 153q0 -85 -59 -124.5t-155 -39.5q-128 0 -220 61l46 105q87 -48 182 -48q39 0 54.5 9.5t15.5 30.5q0 18 -16.5 29t-60.5 24t-70.5 22.5t-56 25t-45 32.5t-25.5 42t-10 58q0 79 56.5 117.5t153.5 38.5q102 0 194 -51l-44 -109q-78 42 -153 42q-40 0 -55.5 -8
t-15.5 -26q0 -17 19.5 -28t89.5 -33q42 -14 68 -25.5t53.5 -31t40.5 -47.5t13 -66z" />
    <glyph glyph-name="t" unicode="t" horiz-adv-x="442" 
d="M380 161l-20 -140q-41 -32 -107 -32q-63 0 -101.5 44t-38.5 114v248h-88v130h88v135l138 69v-204h126v-130h-126v-211q0 -36 12.5 -49.5t38.5 -13.5q31 0 78 40z" />
    <glyph glyph-name="u" unicode="u" horiz-adv-x="584" 
d="M517 0h-138v35q-44 -46 -123 -46q-98 0 -146 63t-48 177v296h138v-284q0 -68 22 -95t67 -27t67.5 27t22.5 92v287h138v-525z" />
    <glyph glyph-name="v" unicode="v" horiz-adv-x="570" 
d="M545 525l-189 -525h-142l-189 525h152l77 -243q21 -64 33 -115q9 40 33 115l77 243h148z" />
    <glyph glyph-name="w" unicode="w" horiz-adv-x="742" 
d="M717 525l-151 -525h-115l-52 206q-24 97 -28 124q-4 -27 -28 -124l-52 -206h-115l-151 525h140l46 -194q20 -89 25 -120q6 37 28 120l52 194h114l52 -194q22 -83 28 -120q5 31 25 120l46 194h136z" />
    <glyph glyph-name="x" unicode="x" horiz-adv-x="574" 
d="M552 0h-164l-53 87q-30 49 -48 85q-9 -20 -48 -85l-53 -87h-164l186 284l-158 241h164l25 -43q30 -49 48 -85q8 17 48 85l25 43h164l-158 -241z" />
    <glyph glyph-name="y" unicode="y" horiz-adv-x="590" 
d="M565 525l-270 -710h-136l70 185l-204 525h152l86 -253q20 -58 34 -115q11 48 34 115l86 253h148z" />
    <glyph glyph-name="z" unicode="z" horiz-adv-x="554" 
d="M494 0h-434v100l191 227q9 11 22 26t26.5 29.5t17.5 19.5q-38 -2 -86 -2h-154v125h417v-100l-185 -227q-7 -9 -65 -75q38 2 86 2h164v-125z" />
    <glyph glyph-name="braceleft" unicode="{" horiz-adv-x="460" 
d="M407 -110q-136 0 -200.5 52.5t-64.5 158.5v71q0 69 -60 69h-22v112h22q60 0 60 69v72q0 106 64.5 158.5t200.5 52.5v-91q-73 -7 -99 -36.5t-26 -93.5v-31q0 -77 -21.5 -109t-73.5 -47q52 -15 73.5 -47t21.5 -109v-30q0 -64 26 -93.5t99 -36.5v-91z" />
    <glyph glyph-name="bar" unicode="|" horiz-adv-x="285" 
d="M205 -185h-125v985h125v-985z" />
    <glyph glyph-name="braceright" unicode="}" horiz-adv-x="460" 
d="M400 242h-22q-60 0 -60 -69v-72q0 -106 -64.5 -158.5t-200.5 -52.5v91q73 7 99 36.5t26 93.5v31q0 77 21.5 109t73.5 47q-52 15 -73.5 47t-21.5 109v30q0 64 -26 93.5t-99 36.5v91q136 0 200.5 -52.5t64.5 -158.5v-71q0 -69 60 -69h22v-112z" />
    <glyph glyph-name="asciitilde" unicode="~" horiz-adv-x="562" 
d="M520 424q-29 -75 -65 -113t-88 -38q-47 0 -96 34q-58 40 -78 40q-21 0 -33 -12.5t-36 -58.5l-82 42q29 75 65 113t88 38q47 0 96 -34q59 -40 78 -40q21 0 33 12.5t36 58.5z" />
    <glyph glyph-name="exclamdown" unicode="&#xa1;" horiz-adv-x="340" 
d="M255 626q0 -34 -25.5 -59.5t-59.5 -25.5t-59.5 25.5t-25.5 59.5t25.5 59.5t59.5 25.5t59.5 -25.5t25.5 -59.5zM240 0h-140v288l23 192h94l23 -192v-288z" />
    <glyph glyph-name="cent" unicode="&#xa2;" horiz-adv-x="537" 
d="M501 200q-68 -92 -156 -111v-100h-135v106q-76 25 -123 95t-47 166t46.5 165.5t123.5 95.5v83h135v-75q93 -19 155 -111l-91 -86q-26 37 -53.5 56t-66.5 19q-50 0 -79.5 -38.5t-29.5 -108.5q0 -68 29.5 -107t79.5 -39q68 0 124 67z" />
    <glyph glyph-name="sterling" unicode="&#xa3;" horiz-adv-x="670" 
d="M624 616l-84 -103q-70 63 -173 63q-49 0 -75 -18t-26 -50q0 -26 25 -70q22 -38 27 -55h153v-113h-143q-6 -78 -66 -150h348v-120h-522v102q85 69 97 168h-97v113h79q-4 9 -13 24.5t-12 20.5q-29 54 -29 99q0 88 67 136t189 48q149 0 255 -95z" />
    <glyph glyph-name="currency" unicode="&#xa4;" horiz-adv-x="638" 
d="M203 470h203v-92h-218q-1 -9 -1 -29q0 -19 1 -28h218v-92h-203q37 -108 142 -108q48 0 78.5 22.5t63.5 74.5l114 -68q-44 -74 -104 -117.5t-154 -43.5q-138 0 -215.5 98.5t-77.5 262.5q0 168 80.5 264.5t214.5 96.5q99 0 153.5 -42.5t94.5 -134.5l-118 -57
q-27 55 -55 78.5t-77 23.5q-105 0 -140 -109z" />
    <glyph glyph-name="yen" unicode="&#xa5;" horiz-adv-x="684" 
d="M662 700l-253 -428v-49h163v-118h-163v-105h-134v105h-163v118h163v46l-253 431h161l92 -166q51 -91 68 -137q23 56 68 137l92 166h159z" />
    <glyph glyph-name="brokenbar" unicode="&#xa6;" 
d="M780 350l-168 -132q-17 -9 -28 -2q-18 11 -12 36l20 45h-141v-124l48 19q22 7 33 -11q7 -12 -3 -28l-129 -168l-132 168q-9 16 -2 28q12 18 35 11l46 -19v124h-139l20 -46q7 -23 -12 -35q-11 -7 -27 2l-169 132l169 129q15 10 27 3q18 -10 12 -33l-20 -48h139v126
l-46 -19q-22 -8 -35 11q-7 12 2 28l132 168l129 -168q10 -16 3 -28q-11 -18 -33 -11l-48 19v-126h141l-20 48q-6 23 12 33q12 7 28 -3z" />
    <glyph glyph-name="section" unicode="&#xa7;" horiz-adv-x="700" 
d="M645 251q0 -108 -110 -165q20 -33 20 -87q0 -72 -54.5 -117.5t-153.5 -45.5q-123 0 -215 68l69 96q70 -49 155 -49q70 0 70 47q0 23 -28.5 37.5t-137.5 50.5q-107 36 -156 81.5t-49 128.5q0 108 109 165q-19 34 -19 87q0 72 54.5 117.5t153.5 45.5q123 0 215 -68l-69 -96
q-70 49 -155 49q-70 0 -70 -47q0 -23 28.5 -37.5t137.5 -50.5q107 -36 156 -81.5t49 -128.5zM511 241q0 16 -9 30.5t-18.5 23t-33.5 19.5t-36 15.5t-42 14.5q-77 26 -119 46q-64 -27 -64 -84q0 -16 9 -30.5t18.5 -23t33.5 -19.5t36 -15.5t42 -14.5q77 -26 119 -46
q64 27 64 84z" />
    <glyph glyph-name="dieresis" unicode="&#xa8;" horiz-adv-x="500" 
d="M436 672q0 -31 -23 -54t-54 -23q-32 0 -55.5 23t-23.5 54q0 32 23.5 55t55.5 23q31 0 54 -23t23 -55zM220 672q0 -31 -23.5 -54t-54.5 -23t-54.5 23t-23.5 54q0 32 23 55t55 23t55 -23t23 -55z" />
    <glyph glyph-name="copyright" unicode="&#xa9;" horiz-adv-x="836" 
d="M779 350q0 -154 -103.5 -257.5t-257.5 -103.5t-257.5 103.5t-103.5 257.5t103.5 257.5t257.5 103.5t257.5 -103.5t103.5 -257.5zM715 350q0 127 -85 212t-212 85t-212 -85t-85 -212t85 -212t212 -85t212 85t85 212zM568 469l-79 -44q-25 44 -66 44q-79 0 -79 -117
q0 -55 21 -85.5t59 -30.5q39 0 71 51l70 -48q-26 -45 -59.5 -67.5t-83.5 -22.5q-78 0 -125 55t-47 148q0 89 49 146.5t125 57.5q101 0 144 -87z" />
    <glyph glyph-name="ordfeminine" unicode="&#xaa;" horiz-adv-x="477" 
d="M415 276h-109v31q-37 -39 -98 -39q-65 0 -112 39t-47 112q0 68 48.5 104.5t124.5 36.5q50 0 84 -17v21q0 24 -16.5 40t-46.5 16q-65 0 -118 -29l-42 78q78 42 160 42q78 0 125 -39.5t47 -109.5v-286zM306 401v55q-30 17 -80 17q-67 0 -67 -54q0 -25 16.5 -42t50.5 -17
q25 0 47 12.5t33 28.5z" />
    <glyph glyph-name="guillemotleft" unicode="&#xab;" horiz-adv-x="628" 
d="M588 0h-143l-163 262l163 263h143l-158 -262zM336 0h-143l-163 262l163 263h143l-158 -262z" />
    <glyph glyph-name="logicalnot" unicode="&#xac;" horiz-adv-x="650" 
d="M630 347l-203 -153q-21 -13 -36 -2q-21 15 -13 42l14 47h-347v130h347l-14 49q-8 26 13 40q16 12 36 -3z" />
    <glyph glyph-name="registered" unicode="&#xae;" horiz-adv-x="836" 
d="M779 350q0 -154 -103.5 -257.5t-257.5 -103.5t-257.5 103.5t-103.5 257.5t103.5 257.5t257.5 103.5t257.5 -103.5t103.5 -257.5zM715 350q0 127 -85 212t-212 85t-212 -85t-85 -212t85 -212t212 -85t212 85t85 212zM590 430q0 -85 -78 -115l76 -155h-94l-71 144h-68v-144
h-83v394h183q60 0 97.5 -31.5t37.5 -92.5zM505 428q0 50 -56 50h-94v-101h94q56 0 56 51z" />
    <glyph glyph-name="macron" unicode="&#xaf;" horiz-adv-x="500" 
d="M395 610h-290v105h290v-105z" />
    <glyph glyph-name="macron" unicode="&#x2c9;" horiz-adv-x="500" 
d="M395 610h-290v105h290v-105z" />
    <glyph glyph-name="degree" unicode="&#xb0;" horiz-adv-x="486" 
d="M441 514q0 -85 -57 -142t-141 -57q-83 0 -140.5 57.5t-57.5 141.5q0 83 57.5 140t140.5 57q84 0 141 -57t57 -140zM336 514q0 39 -27 66t-66 27t-66 -27.5t-27 -65.5q0 -40 27 -67.5t66 -27.5q40 0 66.5 27t26.5 68z" />
    <glyph glyph-name="plusminus" unicode="&#xb1;" 
d="M780 350l-168 -132q-17 -9 -28 -2q-18 11 -12 36l20 45h-141v-124l48 19q22 7 33 -11q7 -12 -3 -28l-129 -168l-132 168q-9 16 -2 28q12 18 35 11l46 -19v124h-139l20 -46q7 -23 -12 -35q-11 -7 -27 2l-169 132l169 129q15 10 27 3q18 -10 12 -33l-20 -48h139v126
l-46 -19q-22 -8 -35 11q-7 12 2 28l132 168l129 -168q10 -16 3 -28q-11 -18 -33 -11l-48 19v-126h141l-20 48q-6 23 12 33q12 7 28 -3z" />
    <glyph glyph-name="twosuperior" unicode="&#xb2;" 
d="M780 350l-168 -132q-17 -9 -28 -2q-18 11 -12 36l20 45h-141v-124l48 19q22 7 33 -11q7 -12 -3 -28l-129 -168l-132 168q-9 16 -2 28q12 18 35 11l46 -19v124h-139l20 -46q7 -23 -12 -35q-11 -7 -27 2l-169 132l169 129q15 10 27 3q18 -10 12 -33l-20 -48h139v126
l-46 -19q-22 -8 -35 11q-7 12 2 28l132 168l129 -168q10 -16 3 -28q-11 -18 -33 -11l-48 19v-126h141l-20 48q-6 23 12 33q12 7 28 -3z" />
    <glyph glyph-name="threesuperior" unicode="&#xb3;" 
d="M780 350l-168 -132q-17 -9 -28 -2q-18 11 -12 36l20 45h-141v-124l48 19q22 7 33 -11q7 -12 -3 -28l-129 -168l-132 168q-9 16 -2 28q12 18 35 11l46 -19v124h-139l20 -46q7 -23 -12 -35q-11 -7 -27 2l-169 132l169 129q15 10 27 3q18 -10 12 -33l-20 -48h139v126
l-46 -19q-22 -8 -35 11q-7 12 2 28l132 168l129 -168q10 -16 3 -28q-11 -18 -33 -11l-48 19v-126h141l-20 48q-6 23 12 33q12 7 28 -3z" />
    <glyph glyph-name="acute" unicode="&#xb4;" horiz-adv-x="500" 
d="M400 755l-145 -160h-117l87 160h175z" />
    <glyph glyph-name="mu" unicode="&#xb5;" 
d="M780 347l-203 -153q-21 -13 -36 -2q-21 15 -13 42l14 47h-284l14 -49q8 -26 -13 -40q-16 -12 -36 3l-203 150l203 153q21 13 36 2q21 -15 13 -42l-14 -47h284l-14 49q-8 26 13 40q16 12 36 -3z" />
    <glyph glyph-name="mu" unicode="&#x3bc;" 
d="M780 347l-203 -153q-21 -13 -36 -2q-21 15 -13 42l14 47h-284l14 -49q8 -26 -13 -40q-16 -12 -36 3l-203 150l203 153q21 13 36 2q21 -15 13 -42l-14 -47h284l-14 49q-8 26 13 40q16 12 36 -3z" />
    <glyph glyph-name="paragraph" unicode="&#xb6;" horiz-adv-x="724" 
d="M635 -185h-114v779h-64v-779h-114v446h-69q-96 0 -161.5 59t-65.5 161q0 101 65.5 160t161.5 59h361v-885z" />
    <glyph glyph-name="periodcentered" unicode="&#xb7;" horiz-adv-x="272" 
d="M230 367q0 -38 -28 -66t-66 -28t-66 28t-28 66t28 66t66 28t66 -28t28 -66z" />
    <glyph glyph-name="periodcentered" unicode="&#x2219;" horiz-adv-x="272" 
d="M230 367q0 -38 -28 -66t-66 -28t-66 28t-28 66t28 66t66 28t66 -28t28 -66z" />
    <glyph glyph-name="cedilla" unicode="&#xb8;" horiz-adv-x="500" 
d="M377 -106q0 -44 -32 -65.5t-87 -21.5q-73 0 -131 36l21 38q45 -24 89 -24q54 0 54 34q0 26 -31 26q-16 0 -30 -7l-36 14l27 113h56l-17 -79q14 7 39 7q34 0 56 -18t22 -53z" />
    <glyph glyph-name="onesuperior" unicode="&#xb9;" 
d="M780 350l-168 -132q-17 -9 -28 -2q-18 11 -12 36l20 45h-141v-124l48 19q22 7 33 -11q7 -12 -3 -28l-129 -168l-132 168q-9 16 -2 28q12 18 35 11l46 -19v124h-139l20 -46q7 -23 -12 -35q-11 -7 -27 2l-169 132l169 129q15 10 27 3q18 -10 12 -33l-20 -48h139v126
l-46 -19q-22 -8 -35 11q-7 12 2 28l132 168l129 -168q10 -16 3 -28q-11 -18 -33 -11l-48 19v-126h141l-20 48q-6 23 12 33q12 7 28 -3z" />
    <glyph glyph-name="ordmasculine" unicode="&#xba;" horiz-adv-x="491" 
d="M438 489q0 -97 -54.5 -159t-138.5 -62t-138 62t-54 159t54 159.5t138 62.5t138.5 -62.5t54.5 -159.5zM324 489q0 51 -20.5 82.5t-58.5 31.5t-58.5 -31.5t-20.5 -82.5t20 -82t59 -31q38 0 58.5 33t20.5 80z" />
    <glyph glyph-name="guillemotright" unicode="&#xbb;" horiz-adv-x="628" 
d="M598 263l-163 -263h-143l158 262l-158 263h143zM346 263l-163 -263h-143l158 262l-158 263h143z" />
    <glyph glyph-name="onequarter" unicode="&#xbc;" 
d="M780 350l-168 -132q-17 -9 -28 -2q-18 11 -12 36l20 45h-141v-124l48 19q22 7 33 -11q7 -12 -3 -28l-129 -168l-132 168q-9 16 -2 28q12 18 35 11l46 -19v124h-139l20 -46q7 -23 -12 -35q-11 -7 -27 2l-169 132l169 129q15 10 27 3q18 -10 12 -33l-20 -48h139v126
l-46 -19q-22 -8 -35 11q-7 12 2 28l132 168l129 -168q10 -16 3 -28q-11 -18 -33 -11l-48 19v-126h141l-20 48q-6 23 12 33q12 7 28 -3z" />
    <glyph glyph-name="onehalf" unicode="&#xbd;" 
d="M780 350l-168 -132q-17 -9 -28 -2q-18 11 -12 36l20 45h-141v-124l48 19q22 7 33 -11q7 -12 -3 -28l-129 -168l-132 168q-9 16 -2 28q12 18 35 11l46 -19v124h-139l20 -46q7 -23 -12 -35q-11 -7 -27 2l-169 132l169 129q15 10 27 3q18 -10 12 -33l-20 -48h139v126
l-46 -19q-22 -8 -35 11q-7 12 2 28l132 168l129 -168q10 -16 3 -28q-11 -18 -33 -11l-48 19v-126h141l-20 48q-6 23 12 33q12 7 28 -3z" />
    <glyph glyph-name="threequarters" unicode="&#xbe;" 
d="M780 350l-168 -132q-17 -9 -28 -2q-18 11 -12 36l20 45h-141v-124l48 19q22 7 33 -11q7 -12 -3 -28l-129 -168l-132 168q-9 16 -2 28q12 18 35 11l46 -19v124h-139l20 -46q7 -23 -12 -35q-11 -7 -27 2l-169 132l169 129q15 10 27 3q18 -10 12 -33l-20 -48h139v126
l-46 -19q-22 -8 -35 11q-7 12 2 28l132 168l129 -168q10 -16 3 -28q-11 -18 -33 -11l-48 19v-126h141l-20 48q-6 23 12 33q12 7 28 -3z" />
    <glyph glyph-name="questiondown" unicode="&#xbf;" horiz-adv-x="584" 
d="M400 626q0 -34 -25 -59.5t-60 -25.5t-60 25.5t-25 59.5t25 59.5t60 25.5t60 -25.5t25 -59.5zM562 105q-111 -116 -265 -116q-119 0 -189 51.5t-70 152.5q0 117 101 165q63 30 84.5 54t23.5 68h137q0 -75 -30 -122t-111 -84q-38 -17 -51.5 -32.5t-13.5 -42.5
q0 -73 119 -73q96 0 175 84z" />
    <glyph glyph-name="Agrave" unicode="&#xc0;" horiz-adv-x="750" 
d="M710 0h-154l-55 156h-256l-55 -156h-150l268 700h136zM453 289l-45 127q-27 78 -35 109q-8 -31 -35 -109l-45 -127h160zM447 745h-117l-145 160h175z" />
    <glyph glyph-name="Aacute" unicode="&#xc1;" horiz-adv-x="750" 
d="M710 0h-154l-55 156h-256l-55 -156h-150l268 700h136zM453 289l-45 127q-27 78 -35 109q-8 -31 -35 -109l-45 -127h160zM555 905l-145 -160h-117l87 160h175z" />
    <glyph glyph-name="Acircumflex" unicode="&#xc2;" horiz-adv-x="750" 
d="M710 0h-154l-55 156h-256l-55 -156h-150l268 700h136zM453 289l-45 127q-27 78 -35 109q-8 -31 -35 -109l-45 -127h160zM566 745h-93l-100 75l-100 -75h-91l122 160h140z" />
    <glyph glyph-name="Atilde" unicode="&#xc3;" horiz-adv-x="750" 
d="M710 0h-154l-55 156h-256l-55 -156h-150l268 700h136zM453 289l-45 127q-27 78 -35 109q-8 -31 -35 -109l-45 -127h160zM573 886q0 -66 -31.5 -105t-83.5 -39q-30 0 -49.5 6.5t-51.5 24.5q-35 20 -52 20q-26 0 -34 -48h-90q0 66 31.5 105t83.5 39q30 0 49.5 -6.5
t51.5 -24.5q35 -20 52 -20q26 0 34 48h90z" />
    <glyph glyph-name="Adieresis" unicode="&#xc4;" horiz-adv-x="750" 
d="M710 0h-154l-55 156h-256l-55 -156h-150l268 700h136zM453 289l-45 127q-27 78 -35 109q-8 -31 -35 -109l-45 -127h160zM560 822q0 -31 -23 -54t-54 -23q-32 0 -55.5 23t-23.5 54q0 32 23.5 55t55.5 23q31 0 54 -23t23 -55zM344 822q0 -31 -23.5 -54t-54.5 -23t-54.5 23
t-23.5 54q0 32 23 55t55 23t55 -23t23 -55z" />
    <glyph glyph-name="Aring" unicode="&#xc5;" horiz-adv-x="750" 
d="M710 0h-154l-55 156h-256l-55 -156h-150l246 643q-45 39 -45 102q0 58 38.5 96.5t96.5 38.5t96.5 -38.5t38.5 -96.5q0 -64 -46 -102zM435 745q0 25 -17 42.5t-42 17.5t-42 -17.5t-17 -42.5t17 -42.5t42 -17.5t42 17.5t17 42.5zM453 289l-45 127q-27 78 -35 109
q-8 -31 -35 -109l-45 -127h160z" />
    <glyph glyph-name="AE" unicode="&#xc6;" horiz-adv-x="1038" 
d="M979 0h-475v125h-249l-81 -125h-160l470 700h480v-134h-326v-126h181v-132h-181v-174h341v-134zM506 522q-28 -56 -80 -134l-91 -140h169v128q0 22 1 78t1 68z" />
    <glyph glyph-name="Ccedilla" unicode="&#xc7;" horiz-adv-x="670" 
d="M620 556l-130 -60q-40 76 -128 76q-77 0 -121 -61t-44 -161q0 -97 44.5 -159.5t121.5 -62.5q46 0 77.5 21t59.5 68l118 -70q-75 -155 -251 -158l-7 -31q14 7 39 7q34 0 56 -18t22 -53q0 -44 -32 -65.5t-87 -21.5q-73 0 -131 36l21 38q45 -24 89 -24q54 0 54 34
q0 26 -31 26q-16 0 -30 -7l-36 14l16 68q-117 17 -187 113t-70 245q0 160 87 260.5t224 100.5q181 0 256 -155z" />
    <glyph glyph-name="Egrave" unicode="&#xc8;" horiz-adv-x="650" 
d="M591 0h-501v700h486v-137h-346v-121h201v-136h-201v-169h361v-137zM409 745h-117l-145 160h175z" />
    <glyph glyph-name="Eacute" unicode="&#xc9;" horiz-adv-x="650" 
d="M591 0h-501v700h486v-137h-346v-121h201v-136h-201v-169h361v-137zM517 905l-145 -160h-117l87 160h175z" />
    <glyph glyph-name="Ecircumflex" unicode="&#xca;" horiz-adv-x="650" 
d="M591 0h-501v700h486v-137h-346v-121h201v-136h-201v-169h361v-137zM528 745h-93l-100 75l-100 -75h-91l122 160h140z" />
    <glyph glyph-name="Edieresis" unicode="&#xcb;" horiz-adv-x="650" 
d="M591 0h-501v700h486v-137h-346v-121h201v-136h-201v-169h361v-137zM522 822q0 -31 -23 -54t-54 -23q-32 0 -55.5 23t-23.5 54q0 32 23.5 55t55.5 23q31 0 54 -23t23 -55zM306 822q0 -31 -23.5 -54t-54.5 -23t-54.5 23t-23.5 54q0 32 23 55t55 23t55 -23t23 -55z" />
    <glyph glyph-name="Igrave" unicode="&#xcc;" horiz-adv-x="340" 
d="M240 0h-140v700h140v-700zM233 745h-117l-145 160h175z" />
    <glyph glyph-name="Iacute" unicode="&#xcd;" horiz-adv-x="340" 
d="M240 0h-140v700h140v-700zM361 905l-145 -160h-117l87 160h175z" />
    <glyph glyph-name="Icircumflex" unicode="&#xce;" horiz-adv-x="340" 
d="M240 0h-140v700h140v-700zM362 735h-93l-100 75l-100 -75h-91l122 160h140z" />
    <glyph glyph-name="Idieresis" unicode="&#xcf;" horiz-adv-x="340" 
d="M240 0h-140v700h140v-700zM356 817q0 -31 -23 -54t-54 -23q-32 0 -55.5 23t-23.5 54q0 32 23.5 55t55.5 23q31 0 54 -23t23 -55zM140 817q0 -31 -23.5 -54t-54.5 -23t-54.5 23t-23.5 54q0 32 23 55t55 23t55 -23t23 -55z" />
    <glyph glyph-name="Eth" unicode="&#xd0;" horiz-adv-x="722" 
d="M672 350q0 -72 -20 -131t-54 -99t-80 -67.5t-97.5 -40t-106.5 -12.5h-209v308h-65v115h65v277h219q161 0 254.5 -84t93.5 -266zM528 350q0 109 -50 161.5t-159 52.5h-78v-141h94v-115h-94v-172h73q107 0 160.5 57t53.5 157z" />
    <glyph glyph-name="Ntilde" unicode="&#xd1;" horiz-adv-x="747" 
d="M657 0h-125l-257 382q-40 62 -49 79q0 -11 1 -71.5t1 -81.5v-308h-138v700h134l248 -370q40 -62 49 -79q0 11 -1 71.5t-1 81.5v296h138v-700zM573 886q0 -66 -31.5 -105t-83.5 -39q-30 0 -49.5 6.5t-51.5 24.5q-35 20 -52 20q-26 0 -34 -48h-90q0 66 31.5 105t83.5 39
q30 0 49.5 -6.5t51.5 -24.5q35 -20 52 -20q26 0 34 48h90z" />
    <glyph glyph-name="Ograve" unicode="&#xd2;" horiz-adv-x="719" 
d="M668 351q0 -167 -85.5 -264.5t-223.5 -97.5q-139 0 -223.5 96.5t-84.5 263.5t85.5 264.5t224.5 97.5q138 0 222.5 -96.5t84.5 -263.5zM524 349q0 105 -45.5 164t-120.5 59t-119 -58t-44 -163t45.5 -164t120.5 -59t119 58t44 163zM428 745h-117l-145 160h175z" />
    <glyph glyph-name="Oacute" unicode="&#xd3;" horiz-adv-x="719" 
d="M668 351q0 -167 -85.5 -264.5t-223.5 -97.5q-139 0 -223.5 96.5t-84.5 263.5t85.5 264.5t224.5 97.5q138 0 222.5 -96.5t84.5 -263.5zM524 349q0 105 -45.5 164t-120.5 59t-119 -58t-44 -163t45.5 -164t120.5 -59t119 58t44 163zM536 905l-145 -160h-117l87 160h175z" />
    <glyph glyph-name="Ocircumflex" unicode="&#xd4;" horiz-adv-x="719" 
d="M668 351q0 -167 -85.5 -264.5t-223.5 -97.5q-139 0 -223.5 96.5t-84.5 263.5t85.5 264.5t224.5 97.5q138 0 222.5 -96.5t84.5 -263.5zM524 349q0 105 -45.5 164t-120.5 59t-119 -58t-44 -163t45.5 -164t120.5 -59t119 58t44 163zM547 740h-93l-100 75l-100 -75h-91
l122 160h140z" />
    <glyph glyph-name="Otilde" unicode="&#xd5;" horiz-adv-x="719" 
d="M668 351q0 -167 -85.5 -264.5t-223.5 -97.5q-139 0 -223.5 96.5t-84.5 263.5t85.5 264.5t224.5 97.5q138 0 222.5 -96.5t84.5 -263.5zM524 349q0 105 -45.5 164t-120.5 59t-119 -58t-44 -163t45.5 -164t120.5 -59t119 58t44 163zM554 886q0 -66 -31.5 -105t-83.5 -39
q-30 0 -49.5 6.5t-51.5 24.5q-35 20 -52 20q-26 0 -34 -48h-90q0 66 31.5 105t83.5 39q30 0 49.5 -6.5t51.5 -24.5q35 -20 52 -20q26 0 34 48h90z" />
    <glyph glyph-name="Odieresis" unicode="&#xd6;" horiz-adv-x="719" 
d="M668 351q0 -167 -85.5 -264.5t-223.5 -97.5q-139 0 -223.5 96.5t-84.5 263.5t85.5 264.5t224.5 97.5q138 0 222.5 -96.5t84.5 -263.5zM524 349q0 105 -45.5 164t-120.5 59t-119 -58t-44 -163t45.5 -164t120.5 -59t119 58t44 163zM541 822q0 -31 -23 -54t-54 -23
q-32 0 -55.5 23t-23.5 54q0 32 23.5 55t55.5 23q31 0 54 -23t23 -55zM325 822q0 -31 -23.5 -54t-54.5 -23t-54.5 23t-23.5 54q0 32 23 55t55 23t55 -23t23 -55z" />
    <glyph glyph-name="multiply" unicode="&#xd7;" 
d="M780 350l-168 -132q-17 -9 -28 -2q-18 11 -12 36l20 45h-141v-124l48 19q22 7 33 -11q7 -12 -3 -28l-129 -168l-132 168q-9 16 -2 28q12 18 35 11l46 -19v124h-139l20 -46q7 -23 -12 -35q-11 -7 -27 2l-169 132l169 129q15 10 27 3q18 -10 12 -33l-20 -48h139v126
l-46 -19q-22 -8 -35 11q-7 12 2 28l132 168l129 -168q10 -16 3 -28q-11 -18 -33 -11l-48 19v-126h141l-20 48q-6 23 12 33q12 7 28 -3z" />
    <glyph glyph-name="Oslash" unicode="&#xd8;" horiz-adv-x="719" 
d="M661 350q0 -162 -81.5 -261.5t-222.5 -99.5q-52 0 -103 19l-28 -58h-132l61 124q-102 104 -102 276q0 162 81.5 261.5t222.5 99.5q53 0 99 -18l28 57h132l-59 -122q104 -102 104 -278zM398 574q-22 5 -41 5q-83 0 -124 -63t-41 -166q0 -85 27 -142zM522 350q0 90 -30 147
l-180 -370q21 -6 45 -6q83 0 124 63t41 166z" />
    <glyph glyph-name="Ugrave" unicode="&#xd9;" horiz-adv-x="737" 
d="M652 309q0 -152 -75 -236t-209 -84q-129 0 -206 84t-77 234v393h140v-391q0 -84 38.5 -133.5t104.5 -49.5q67 0 105.5 48.5t38.5 132.5v393h140v-391zM443 730h-117l-145 160h175z" />
    <glyph glyph-name="Uacute" unicode="&#xda;" horiz-adv-x="737" 
d="M652 309q0 -152 -75 -236t-209 -84q-129 0 -206 84t-77 234v393h140v-391q0 -84 38.5 -133.5t104.5 -49.5q67 0 105.5 48.5t38.5 132.5v393h140v-391zM551 890l-145 -160h-117l87 160h175z" />
    <glyph glyph-name="Ucircumflex" unicode="&#xdb;" horiz-adv-x="737" 
d="M652 309q0 -152 -75 -236t-209 -84q-129 0 -206 84t-77 234v393h140v-391q0 -84 38.5 -133.5t104.5 -49.5q67 0 105.5 48.5t38.5 132.5v393h140v-391zM562 745h-93l-100 75l-100 -75h-91l122 160h140z" />
    <glyph glyph-name="Udieresis" unicode="&#xdc;" horiz-adv-x="737" 
d="M652 309q0 -152 -75 -236t-209 -84q-129 0 -206 84t-77 234v393h140v-391q0 -84 38.5 -133.5t104.5 -49.5q67 0 105.5 48.5t38.5 132.5v393h140v-391zM555 822q0 -31 -23 -54t-54 -23q-32 0 -55.5 23t-23.5 54q0 32 23.5 55t55.5 23q31 0 54 -23t23 -55zM339 822
q0 -31 -23.5 -54t-54.5 -23t-54.5 23t-23.5 54q0 32 23 55t55 23t55 -23t23 -55z" />
    <glyph glyph-name="Yacute" unicode="&#xdd;" horiz-adv-x="714" 
d="M692 700l-265 -423v-277h-140v274l-265 426h161l99 -166q47 -79 76 -137q27 55 76 137l99 166h159zM539 895l-145 -160h-117l87 160h175z" />
    <glyph glyph-name="Thorn" unicode="&#xde;" horiz-adv-x="680" 
d="M637 370q0 -116 -69 -173t-184 -57h-154v-140h-140v700h140v-108h166q105 0 173 -57.5t68 -164.5zM493 367q0 89 -102 89h-161v-180h163q100 0 100 91z" />
    <glyph glyph-name="germandbls" unicode="&#xdf;" horiz-adv-x="586" 
d="M546 221q0 -221 -243 -221h-22v125h18q107 0 107 96q0 112 -119 112h-6v120h5q31 0 48.5 19.5t17.5 53.5q0 32 -18.5 51t-56.5 19q-41 0 -56.5 -20t-15.5 -62v-638l-138 -69v714q0 205 212 205q92 0 152.5 -49t60.5 -136q0 -107 -93 -139q64 -13 105.5 -57t41.5 -124z
" />
    <glyph glyph-name="agrave" unicode="&#xe0;" horiz-adv-x="556" 
d="M494 0h-138v35q-44 -46 -118 -46q-80 0 -138 48.5t-58 138.5q0 84 59.5 129t153.5 45q59 0 101 -21v26q0 29 -19.5 48t-55.5 19q-46 0 -76.5 -7.5t-67.5 -27.5l-53 96q92 53 197 53q97 0 155 -48.5t58 -135.5v-352zM356 154v66q-35 22 -96 22q-80 0 -80 -66
q0 -31 19.5 -50.5t60.5 -19.5q32 0 58 14t38 34zM351 595h-117l-145 160h175z" />
    <glyph glyph-name="aacute" unicode="&#xe1;" horiz-adv-x="556" 
d="M494 0h-138v35q-44 -46 -118 -46q-80 0 -138 48.5t-58 138.5q0 84 59.5 129t153.5 45q59 0 101 -21v26q0 29 -19.5 48t-55.5 19q-46 0 -76.5 -7.5t-67.5 -27.5l-53 96q92 53 197 53q97 0 155 -48.5t58 -135.5v-352zM356 154v66q-35 22 -96 22q-80 0 -80 -66
q0 -31 19.5 -50.5t60.5 -19.5q32 0 58 14t38 34zM459 755l-145 -160h-117l87 160h175z" />
    <glyph glyph-name="acircumflex" unicode="&#xe2;" horiz-adv-x="556" 
d="M494 0h-138v35q-44 -46 -118 -46q-80 0 -138 48.5t-58 138.5q0 84 59.5 129t153.5 45q59 0 101 -21v26q0 29 -19.5 48t-55.5 19q-46 0 -76.5 -7.5t-67.5 -27.5l-53 96q92 53 197 53q97 0 155 -48.5t58 -135.5v-352zM356 154v66q-35 22 -96 22q-80 0 -80 -66
q0 -31 19.5 -50.5t60.5 -19.5q32 0 58 14t38 34zM470 590h-93l-100 75l-100 -75h-91l122 160h140z" />
    <glyph glyph-name="atilde" unicode="&#xe3;" horiz-adv-x="556" 
d="M494 0h-138v35q-44 -46 -118 -46q-80 0 -138 48.5t-58 138.5q0 84 59.5 129t153.5 45q59 0 101 -21v26q0 29 -19.5 48t-55.5 19q-46 0 -76.5 -7.5t-67.5 -27.5l-53 96q92 53 197 53q97 0 155 -48.5t58 -135.5v-352zM356 154v66q-35 22 -96 22q-80 0 -80 -66
q0 -31 19.5 -50.5t60.5 -19.5q32 0 58 14t38 34zM477 736q0 -66 -31.5 -105t-83.5 -39q-30 0 -49.5 6.5t-51.5 24.5q-35 20 -52 20q-26 0 -34 -48h-90q0 66 31.5 105t83.5 39q30 0 49.5 -6.5t51.5 -24.5q35 -20 52 -20q26 0 34 48h90z" />
    <glyph glyph-name="adieresis" unicode="&#xe4;" horiz-adv-x="556" 
d="M494 0h-138v35q-44 -46 -118 -46q-80 0 -138 48.5t-58 138.5q0 84 59.5 129t153.5 45q59 0 101 -21v26q0 29 -19.5 48t-55.5 19q-46 0 -76.5 -7.5t-67.5 -27.5l-53 96q92 53 197 53q97 0 155 -48.5t58 -135.5v-352zM356 154v66q-35 22 -96 22q-80 0 -80 -66
q0 -31 19.5 -50.5t60.5 -19.5q32 0 58 14t38 34zM464 667q0 -31 -23 -54t-54 -23q-32 0 -55.5 23t-23.5 54q0 32 23.5 55t55.5 23q31 0 54 -23t23 -55zM248 667q0 -31 -23.5 -54t-54.5 -23t-54.5 23t-23.5 54q0 32 23 55t55 23t55 -23t23 -55z" />
    <glyph glyph-name="aring" unicode="&#xe5;" horiz-adv-x="556" 
d="M494 0h-138v35q-44 -46 -118 -46q-80 0 -138 48.5t-58 138.5q0 84 59.5 129t153.5 45q59 0 101 -21v26q0 29 -19.5 48t-55.5 19q-46 0 -76.5 -7.5t-67.5 -27.5l-53 96q92 53 197 53q97 0 155 -48.5t58 -135.5v-352zM356 154v66q-35 22 -96 22q-80 0 -80 -66
q0 -31 19.5 -50.5t60.5 -19.5q32 0 58 14t38 34zM413 728q0 -58 -38.5 -95.5t-96.5 -37.5t-96.5 37.5t-38.5 95.5t38.5 96.5t96.5 38.5t96.5 -38.5t38.5 -96.5zM337 728q0 25 -17 42.5t-42 17.5t-42 -17.5t-17 -42.5t17 -42.5t42 -17.5t42 17.5t17 42.5z" />
    <glyph glyph-name="ae" unicode="&#xe6;" horiz-adv-x="843" 
d="M800 262q0 -24 -2 -44h-314q3 -50 34.5 -74.5t73.5 -24.5q58 0 90 37l98 -82q-31 -40 -82.5 -62.5t-105.5 -22.5q-117 0 -184 80q-71 -80 -170 -80q-80 0 -138 48.5t-58 138.5q0 84 59.5 129t153.5 45q59 0 101 -21v26q0 29 -19.5 48t-55.5 19q-46 0 -76.5 -7.5
t-67.5 -27.5l-53 96q92 53 197 53q103 0 158 -61q56 61 140 61q102 0 161.5 -78.5t59.5 -195.5zM666 322q-3 39 -27 66.5t-67 27.5q-36 0 -59 -26.5t-27 -67.5h180zM356 154v66q-35 22 -96 22q-80 0 -80 -66q0 -31 19.5 -50.5t60.5 -19.5q32 0 58 14t38 34z" />
    <glyph glyph-name="ccedilla" unicode="&#xe7;" horiz-adv-x="537" 
d="M501 106q-40 -54 -86 -84t-112 -33l-7 -31q14 7 39 7q34 0 56 -18t22 -53q0 -44 -32 -65.5t-87 -21.5q-73 0 -131 36l21 38q45 -24 89 -24q54 0 54 34q0 26 -31 26q-16 0 -30 -7l-36 14l16 68q-90 15 -148 89t-58 181q0 120 71 197t181 77q132 0 208 -116l-91 -92
q-26 37 -53.5 56t-66.5 19q-50 0 -79.5 -38.5t-29.5 -102.5q0 -63 30 -101.5t79 -38.5q68 0 124 67z" />
    <glyph glyph-name="egrave" unicode="&#xe8;" horiz-adv-x="538" 
d="M495 262q0 -24 -2 -44h-314q3 -50 34.5 -74.5t73.5 -24.5q58 0 90 37l98 -82q-31 -40 -82.5 -62.5t-105.5 -22.5q-113 0 -180 74t-67 199q0 120 66.5 197t167.5 77q102 0 161.5 -78.5t59.5 -195.5zM361 322q-3 39 -27 66.5t-67 27.5q-36 0 -59 -26.5t-27 -67.5h180z
M346 595h-117l-145 160h175z" />
    <glyph glyph-name="eacute" unicode="&#xe9;" horiz-adv-x="538" 
d="M495 262q0 -24 -2 -44h-314q3 -50 34.5 -74.5t73.5 -24.5q58 0 90 37l98 -82q-31 -40 -82.5 -62.5t-105.5 -22.5q-113 0 -180 74t-67 199q0 120 66.5 197t167.5 77q102 0 161.5 -78.5t59.5 -195.5zM361 322q-3 39 -27 66.5t-67 27.5q-36 0 -59 -26.5t-27 -67.5h180z
M454 755l-145 -160h-117l87 160h175z" />
    <glyph glyph-name="ecircumflex" unicode="&#xea;" horiz-adv-x="538" 
d="M495 262q0 -24 -2 -44h-314q3 -50 34.5 -74.5t73.5 -24.5q58 0 90 37l98 -82q-31 -40 -82.5 -62.5t-105.5 -22.5q-113 0 -180 74t-67 199q0 120 66.5 197t167.5 77q102 0 161.5 -78.5t59.5 -195.5zM361 322q-3 39 -27 66.5t-67 27.5q-36 0 -59 -26.5t-27 -67.5h180z
M465 585h-93l-100 75l-100 -75h-91l122 160h140z" />
    <glyph glyph-name="edieresis" unicode="&#xeb;" horiz-adv-x="538" 
d="M495 262q0 -24 -2 -44h-314q3 -50 34.5 -74.5t73.5 -24.5q58 0 90 37l98 -82q-31 -40 -82.5 -62.5t-105.5 -22.5q-113 0 -180 74t-67 199q0 120 66.5 197t167.5 77q102 0 161.5 -78.5t59.5 -195.5zM361 322q-3 39 -27 66.5t-67 27.5q-36 0 -59 -26.5t-27 -67.5h180z
M459 667q0 -31 -23 -54t-54 -23q-32 0 -55.5 23t-23.5 54q0 32 23.5 55t55.5 23q31 0 54 -23t23 -55zM243 667q0 -31 -23.5 -54t-54.5 -23t-54.5 23t-23.5 54q0 32 23 55t55 23t55 -23t23 -55z" />
    <glyph glyph-name="igrave" unicode="&#xec;" horiz-adv-x="282" 
d="M210 0h-138v525h138v-525zM206 595h-117l-145 160h175z" />
    <glyph glyph-name="iacute" unicode="&#xed;" horiz-adv-x="282" 
d="M210 0h-138v525h138v-525zM337 755l-145 -160h-117l87 160h175z" />
    <glyph glyph-name="icircumflex" unicode="&#xee;" horiz-adv-x="282" 
d="M210 0h-138v525h138v-525zM333 580h-93l-100 75l-100 -75h-91l122 160h140z" />
    <glyph glyph-name="idieresis" unicode="&#xef;" horiz-adv-x="282" 
d="M210 0h-138v525h138v-525zM327 662q0 -31 -23 -54t-54 -23q-32 0 -55.5 23t-23.5 54q0 32 23.5 55t55.5 23q31 0 54 -23t23 -55zM111 662q0 -31 -23.5 -54t-54.5 -23t-54.5 23t-23.5 54q0 32 23 55t55 23t55 -23t23 -55z" />
    <glyph glyph-name="eth" unicode="&#xf0;" horiz-adv-x="555" 
d="M515 282q0 -144 -65 -218.5t-173 -74.5q-104 0 -170.5 67.5t-66.5 175.5q0 107 63.5 175.5t153.5 68.5q69 0 124 -38q-14 65 -65 111l-47 -46l-64 57l36 35q-45 18 -87 21v95q93 -3 164 -40l41 40l64 -57l-34 -33q126 -116 126 -339zM380 232q0 55 -26.5 89t-76.5 34
t-76 -33.5t-26 -89.5t26 -88.5t76 -32.5q49 0 76 34.5t27 86.5z" />
    <glyph glyph-name="ntilde" unicode="&#xf1;" horiz-adv-x="584" 
d="M522 0h-138v284q0 68 -22 95t-67 27t-67.5 -27t-22.5 -92v-287h-138v525h138v-35q44 46 123 46q98 0 146 -63t48 -177v-296zM489 736q0 -66 -31.5 -105t-83.5 -39q-30 0 -49.5 6.5t-51.5 24.5q-35 20 -52 20q-26 0 -34 -48h-90q0 66 31.5 105t83.5 39q30 0 49.5 -6.5
t51.5 -24.5q35 -20 52 -20q26 0 34 48h90z" />
    <glyph glyph-name="ograve" unicode="&#xf2;" horiz-adv-x="555" 
d="M515 262q0 -120 -67.5 -196.5t-170.5 -76.5t-170 76.5t-67 196.5t67 197t170 77t170.5 -77t67.5 -197zM375 262q0 63 -25 102t-73 39t-72.5 -38.5t-24.5 -102.5q0 -63 24.5 -101.5t72.5 -38.5q47 0 72.5 40.5t25.5 99.5zM350 595h-117l-145 160h175z" />
    <glyph glyph-name="oacute" unicode="&#xf3;" horiz-adv-x="555" 
d="M515 262q0 -120 -67.5 -196.5t-170.5 -76.5t-170 76.5t-67 196.5t67 197t170 77t170.5 -77t67.5 -197zM375 262q0 63 -25 102t-73 39t-72.5 -38.5t-24.5 -102.5q0 -63 24.5 -101.5t72.5 -38.5q47 0 72.5 40.5t25.5 99.5zM458 755l-145 -160h-117l87 160h175z" />
    <glyph glyph-name="ocircumflex" unicode="&#xf4;" horiz-adv-x="555" 
d="M515 262q0 -120 -67.5 -196.5t-170.5 -76.5t-170 76.5t-67 196.5t67 197t170 77t170.5 -77t67.5 -197zM375 262q0 63 -25 102t-73 39t-72.5 -38.5t-24.5 -102.5q0 -63 24.5 -101.5t72.5 -38.5q47 0 72.5 40.5t25.5 99.5zM469 585h-93l-100 75l-100 -75h-91l122 160h140z
" />
    <glyph glyph-name="otilde" unicode="&#xf5;" horiz-adv-x="555" 
d="M515 262q0 -120 -67.5 -196.5t-170.5 -76.5t-170 76.5t-67 196.5t67 197t170 77t170.5 -77t67.5 -197zM375 262q0 63 -25 102t-73 39t-72.5 -38.5t-24.5 -102.5q0 -63 24.5 -101.5t72.5 -38.5q47 0 72.5 40.5t25.5 99.5zM472 736q0 -66 -31.5 -105t-83.5 -39
q-30 0 -49.5 6.5t-51.5 24.5q-35 20 -52 20q-26 0 -34 -48h-90q0 66 31.5 105t83.5 39q30 0 49.5 -6.5t51.5 -24.5q35 -20 52 -20q26 0 34 48h90z" />
    <glyph glyph-name="odieresis" unicode="&#xf6;" horiz-adv-x="555" 
d="M515 262q0 -120 -67.5 -196.5t-170.5 -76.5t-170 76.5t-67 196.5t67 197t170 77t170.5 -77t67.5 -197zM375 262q0 63 -25 102t-73 39t-72.5 -38.5t-24.5 -102.5q0 -63 24.5 -101.5t72.5 -38.5q47 0 72.5 40.5t25.5 99.5zM463 662q0 -31 -23 -54t-54 -23q-32 0 -55.5 23
t-23.5 54q0 32 23.5 55t55.5 23q31 0 54 -23t23 -55zM247 662q0 -31 -23.5 -54t-54.5 -23t-54.5 23t-23.5 54q0 32 23 55t55 23t55 -23t23 -55z" />
    <glyph glyph-name="divide" unicode="&#xf7;" 
d="M780 350l-168 -132q-17 -9 -28 -2q-18 11 -12 36l20 45h-141v-124l48 19q22 7 33 -11q7 -12 -3 -28l-129 -168l-132 168q-9 16 -2 28q12 18 35 11l46 -19v124h-139l20 -46q7 -23 -12 -35q-11 -7 -27 2l-169 132l169 129q15 10 27 3q18 -10 12 -33l-20 -48h139v126
l-46 -19q-22 -8 -35 11q-7 12 2 28l132 168l129 -168q10 -16 3 -28q-11 -18 -33 -11l-48 19v-126h141l-20 48q-6 23 12 33q12 7 28 -3z" />
    <glyph glyph-name="oslash" unicode="&#xf8;" horiz-adv-x="555" 
d="M515 262q0 -120 -67.5 -196.5t-170.5 -76.5q-37 0 -78 13l-27 -52h-123l60 113q-69 77 -69 199q0 120 67 197t170 77q41 0 76 -13l27 52h123l-59 -112q71 -77 71 -201zM303 419q-12 3 -26 3q-52 0 -79.5 -44.5t-27.5 -115.5q0 -43 10 -76zM385 262q0 44 -12 80l-124 -235
q12 -4 28 -4q52 0 80 47t28 112z" />
    <glyph glyph-name="ugrave" unicode="&#xf9;" horiz-adv-x="584" 
d="M517 0h-138v35q-44 -46 -123 -46q-98 0 -146 63t-48 177v296h138v-284q0 -68 22 -95t67 -27t67.5 27t22.5 92v287h138v-525zM363 595h-117l-145 160h175z" />
    <glyph glyph-name="uacute" unicode="&#xfa;" horiz-adv-x="584" 
d="M517 0h-138v35q-44 -46 -123 -46q-98 0 -146 63t-48 177v296h138v-284q0 -68 22 -95t67 -27t67.5 27t22.5 92v287h138v-525zM471 755l-145 -160h-117l87 160h175z" />
    <glyph glyph-name="ucircumflex" unicode="&#xfb;" horiz-adv-x="584" 
d="M517 0h-138v35q-44 -46 -123 -46q-98 0 -146 63t-48 177v296h138v-284q0 -68 22 -95t67 -27t67.5 27t22.5 92v287h138v-525zM482 595h-93l-100 75l-100 -75h-91l122 160h140z" />
    <glyph glyph-name="udieresis" unicode="&#xfc;" horiz-adv-x="584" 
d="M517 0h-138v35q-44 -46 -123 -46q-98 0 -146 63t-48 177v296h138v-284q0 -68 22 -95t67 -27t67.5 27t22.5 92v287h138v-525zM476 672q0 -31 -23 -54t-54 -23q-32 0 -55.5 23t-23.5 54q0 32 23.5 55t55.5 23q31 0 54 -23t23 -55zM260 672q0 -31 -23.5 -54t-54.5 -23
t-54.5 23t-23.5 54q0 32 23 55t55 23t55 -23t23 -55z" />
    <glyph glyph-name="yacute" unicode="&#xfd;" horiz-adv-x="590" 
d="M565 525l-270 -710h-136l70 185l-204 525h152l86 -253q20 -58 34 -115q11 48 34 115l86 253h148zM475 745l-145 -160h-117l87 160h175z" />
    <glyph glyph-name="thorn" unicode="&#xfe;" horiz-adv-x="562" 
d="M520 256q0 -120 -54 -193.5t-150 -73.5q-66 0 -111 41v-154l-138 -69v853l138 69v-237q50 44 111 44q90 0 147 -70t57 -210zM380 253q0 153 -90 153q-51 0 -85 -44v-198q33 -45 93 -45q82 0 82 134z" />
    <glyph glyph-name="ydieresis" unicode="&#xff;" horiz-adv-x="590" 
d="M565 525l-270 -710h-136l70 185l-204 525h152l86 -253q20 -58 34 -115q11 48 34 115l86 253h148zM480 662q0 -31 -23 -54t-54 -23q-32 0 -55.5 23t-23.5 54q0 32 23.5 55t55.5 23q31 0 54 -23t23 -55zM264 662q0 -31 -23.5 -54t-54.5 -23t-54.5 23t-23.5 54q0 32 23 55
t55 23t55 -23t23 -55z" />
    <glyph glyph-name="dotlessi" unicode="&#x131;" horiz-adv-x="282" 
d="M210 0h-138v525h138v-525z" />
    <glyph glyph-name="Lslash" unicode="&#x141;" horiz-adv-x="635" 
d="M596 0h-491v236l-65 -50v135l65 50v329h138v-243l116 86v-135l-116 -86v-184h353v-138z" />
    <glyph glyph-name="lslash" unicode="&#x142;" horiz-adv-x="322" 
d="M287 353l-58 -40v-313h-136v239l-58 -40v135l58 40v286l136 69v-282l58 41v-135z" />
    <glyph glyph-name="OE" unicode="&#x152;" horiz-adv-x="1055" 
d="M996 0h-471v63q-55 -74 -168 -74q-141 0 -222.5 99.5t-81.5 261.5t81.5 261.5t222.5 99.5q111 0 168 -74v63h456v-137h-336v-121h191v-136h-191v-169h351v-137zM517 350q0 100 -39.5 161t-120.5 61t-120.5 -61t-39.5 -161t39.5 -161t120.5 -61t120.5 61t39.5 161z" />
    <glyph glyph-name="oe" unicode="&#x153;" horiz-adv-x="860" 
d="M817 262q0 -24 -2 -44h-314q3 -50 34.5 -74.5t73.5 -24.5q58 0 90 37l98 -82q-31 -40 -82.5 -62.5t-105.5 -22.5q-112 0 -172 75q-51 -75 -160 -75q-103 0 -170 76.5t-67 196.5t67 197t170 77q108 0 161 -77q62 77 158 77q102 0 161.5 -78.5t59.5 -195.5zM683 322
q-3 39 -27 66.5t-67 27.5q-36 0 -59 -26.5t-27 -67.5h180zM375 262q0 63 -25 102t-73 39t-72.5 -38.5t-24.5 -102.5q0 -63 24.5 -101.5t72.5 -38.5q47 0 72.5 40.5t25.5 99.5z" />
    <glyph glyph-name="Scaron" unicode="&#x160;" horiz-adv-x="661" 
d="M603 212q0 -104 -68.5 -163.5t-206.5 -59.5q-87 0 -159.5 34t-112.5 93l101 90q69 -80 179 -80q63 0 92.5 18t29.5 58q0 35 -30 54t-126 41q-54 13 -89.5 26.5t-67.5 37t-47 59.5t-15 86q0 93 71.5 149t178.5 56q150 0 255 -110l-101 -98q-70 72 -159 72q-52 0 -76 -18.5
t-24 -44.5q0 -32 27.5 -48t113.5 -36q40 -9 67.5 -17.5t62 -26t55 -38.5t35 -55.5t14.5 -78.5zM523 910l-122 -160h-140l-122 160h93l100 -75l100 75h91z" />
    <glyph glyph-name="scaron" unicode="&#x161;" horiz-adv-x="537" 
d="M482 153q0 -85 -59 -124.5t-155 -39.5q-128 0 -220 61l46 105q87 -48 182 -48q39 0 54.5 9.5t15.5 30.5q0 18 -16.5 29t-60.5 24t-70.5 22.5t-56 25t-45 32.5t-25.5 42t-10 58q0 79 56.5 117.5t153.5 38.5q102 0 194 -51l-44 -109q-78 42 -153 42q-40 0 -55.5 -8
t-15.5 -26q0 -17 19.5 -28t89.5 -33q42 -14 68 -25.5t53.5 -31t40.5 -47.5t13 -66zM453 755l-122 -160h-140l-122 160h93l100 -75l100 75h91z" />
    <glyph glyph-name="Ydieresis" unicode="&#x178;" horiz-adv-x="714" 
d="M692 700l-265 -423v-277h-140v274l-265 426h161l99 -166q47 -79 76 -137q27 55 76 137l99 166h159zM544 812q0 -31 -23 -54t-54 -23q-32 0 -55.5 23t-23.5 54q0 32 23.5 55t55.5 23q31 0 54 -23t23 -55zM328 812q0 -31 -23.5 -54t-54.5 -23t-54.5 23t-23.5 54q0 32 23 55
t55 23t55 -23t23 -55z" />
    <glyph glyph-name="Zcaron" unicode="&#x17d;" horiz-adv-x="688" 
d="M620 0h-552v124l301 359q48 59 80 91q-56 -2 -142 -2h-219v128h527v-124l-298 -359q-48 -59 -80 -91q56 2 142 2h241v-128zM534 905l-122 -160h-140l-122 160h93l100 -75l100 75h91z" />
    <glyph glyph-name="zcaron" unicode="&#x17e;" horiz-adv-x="554" 
d="M494 0h-434v100l191 227q9 11 22 26t26.5 29.5t17.5 19.5q-38 -2 -86 -2h-154v125h417v-100l-185 -227q-7 -9 -65 -75q38 2 86 2h164v-125zM476 755l-122 -160h-140l-122 160h93l100 -75l100 75h91z" />
    <glyph glyph-name="florin" unicode="&#x192;" horiz-adv-x="417" 
d="M355 588q-22 11 -48 11q-30 0 -40.5 -9.5t-10.5 -32.5v-32h89v-127h-89v-522l-138 -69v591h-63v127h63v48q0 138 150 138q51 0 87 -15v-108z" />
    <glyph glyph-name="circumflex" unicode="&#x2c6;" horiz-adv-x="500" 
d="M442 595h-93l-100 75l-100 -75h-91l122 160h140z" />
    <glyph glyph-name="caron" unicode="&#x2c7;" horiz-adv-x="500" 
d="M442 755l-122 -160h-140l-122 160h93l100 -75l100 75h91z" />
    <glyph glyph-name="breve" unicode="&#x2d8;" horiz-adv-x="500" 
d="M437 755q-10 -76 -60 -118t-128 -42q-79 0 -127 42t-59 118h84q19 -65 104 -65q46 0 70.5 15.5t34.5 49.5h81z" />
    <glyph glyph-name="dotaccent" unicode="&#x2d9;" horiz-adv-x="500" 
d="M327 672q0 -31 -23 -54t-54 -23q-32 0 -55.5 23t-23.5 54q0 32 23.5 55t55.5 23q31 0 54 -23t23 -55z" />
    <glyph glyph-name="ring" unicode="&#x2da;" horiz-adv-x="500" 
d="M385 728q0 -58 -38.5 -95.5t-96.5 -37.5t-96.5 37.5t-38.5 95.5t38.5 96.5t96.5 38.5t96.5 -38.5t38.5 -96.5zM309 728q0 25 -17 42.5t-42 17.5t-42 -17.5t-17 -42.5t17 -42.5t42 -17.5t42 17.5t17 42.5z" />
    <glyph glyph-name="ogonek" unicode="&#x2db;" horiz-adv-x="500" 
d="M379 -146q-62 -47 -126 -47q-100 0 -100 83q0 59 76 110h60q-31 -35 -41 -55.5t-10 -43.5q0 -14 10 -22.5t25 -8.5q37 0 80 24z" />
    <glyph glyph-name="tilde" unicode="&#x2dc;" horiz-adv-x="500" 
d="M449 736q0 -66 -31.5 -105t-83.5 -39q-30 0 -49.5 6.5t-51.5 24.5q-35 20 -52 20q-26 0 -34 -48h-90q0 66 31.5 105t83.5 39q30 0 49.5 -6.5t51.5 -24.5q35 -20 52 -20q26 0 34 48h90z" />
    <glyph glyph-name="hungarumlaut" unicode="&#x2dd;" horiz-adv-x="500" 
d="M514 755l-145 -160h-117l87 160h175zM294 755l-145 -160h-117l87 160h175z" />
    <glyph glyph-name="Delta" unicode="&#x394;" horiz-adv-x="650" 
d="M605 281h-347l14 -49q8 -26 -13 -40q-16 -12 -36 3l-203 150l203 153q21 13 36 2q21 -15 13 -42l-14 -47h347v-130z" />
    <glyph glyph-name="Delta" unicode="&#x2206;" horiz-adv-x="650" 
d="M605 281h-347l14 -49q8 -26 -13 -40q-16 -12 -36 3l-203 150l203 153q21 13 36 2q21 -15 13 -42l-14 -47h347v-130z" />
    <glyph glyph-name="Omega" unicode="&#x3a9;" horiz-adv-x="440" 
d="M374 476q-15 -21 -42 -13l-47 14v-477h-130v477l-49 -14q-26 -8 -40 13q-12 16 3 36l150 203l153 -203q13 -21 2 -36z" />
    <glyph glyph-name="Omega" unicode="&#x2126;" horiz-adv-x="440" 
d="M374 476q-15 -21 -42 -13l-47 14v-477h-130v477l-49 -14q-26 -8 -40 13q-12 16 3 36l150 203l153 -203q13 -21 2 -36z" />
    <glyph glyph-name="pi" unicode="&#x3c0;" horiz-adv-x="836" 
d="M779 350q0 -154 -103.5 -257.5t-257.5 -103.5t-257.5 103.5t-103.5 257.5t103.5 257.5t257.5 103.5t257.5 -103.5t103.5 -257.5zM715 350q0 127 -85 212t-212 85t-212 -85t-85 -212t85 -212t212 -85t212 85t85 212zM597 422q0 -65 -39 -96.5t-103 -31.5h-82v-141h-83v394
h172q59 0 97 -32.5t38 -92.5zM512 421q0 50 -56 50h-83v-103h83q56 0 56 53z" />
    <glyph glyph-name="endash" unicode="&#x2013;" horiz-adv-x="460" 
d="M405 299h-350v128h350v-128z" />
    <glyph glyph-name="emdash" unicode="&#x2014;" horiz-adv-x="620" 
d="M565 299h-510v128h510v-128z" />
    <glyph glyph-name="quoteleft" unicode="&#x2018;" horiz-adv-x="281" 
d="M220 700l-14 -281h-163l82 281h95z" />
    <glyph glyph-name="quoteright" unicode="&#x2019;" horiz-adv-x="281" 
d="M238 700l-82 -281h-95l14 281h163z" />
    <glyph glyph-name="quotesinglbase" unicode="&#x201a;" horiz-adv-x="281" 
d="M238 169l-82 -281h-95l14 281h163z" />
    <glyph glyph-name="quotedblleft" unicode="&#x201c;" horiz-adv-x="542" 
d="M481 700l-14 -281h-163l82 281h95zM220 700l-14 -281h-163l82 281h95z" />
    <glyph glyph-name="quotedblright" unicode="&#x201d;" horiz-adv-x="542" 
d="M499 700l-82 -281h-95l14 281h163zM238 700l-82 -281h-95l14 281h163z" />
    <glyph glyph-name="quotedblbase" unicode="&#x201e;" horiz-adv-x="542" 
d="M499 169l-82 -281h-95l14 281h163zM238 169l-82 -281h-95l14 281h163z" />
    <glyph glyph-name="dagger" unicode="&#x2020;" horiz-adv-x="594" 
d="M539 366h-174v-466h-136v466h-174v125h174v209h136v-209h174v-125z" />
    <glyph glyph-name="daggerdbl" unicode="&#x2021;" horiz-adv-x="594" 
d="M539 109h-176v-209h-132v209h-176v123h176v136h-176v123h176v209h132v-209h176v-123h-176v-136h176v-123z" />
    <glyph glyph-name="bullet" unicode="&#x2022;" horiz-adv-x="490" 
d="M425 366q0 -76 -52 -128t-128 -52t-128 52t-52 128t52 129t128 53t128 -53t52 -129z" />
    <glyph glyph-name="ellipsis" unicode="&#x2026;" horiz-adv-x="816" 
d="M774 83q0 -38 -28 -66t-66 -28t-66 28t-28 66t28 66t66 28t66 -28t28 -66zM502 83q0 -38 -28 -66t-66 -28t-66 28t-28 66t28 66t66 28t66 -28t28 -66zM230 83q0 -38 -28 -66t-66 -28t-66 28t-28 66t28 66t66 28t66 -28t28 -66z" />
    <glyph glyph-name="perthousand" unicode="&#x2030;" horiz-adv-x="1415" 
d="M407 494q0 -98 -52.5 -158t-133.5 -60t-132 58.5t-51 157.5q0 100 51 159.5t134 59.5q84 0 134 -59t50 -158zM774 700l-429 -700h-121l429 700h121zM1385 207q0 -98 -52.5 -158t-133.5 -60t-132 58.5t-51 157.5q0 100 51 159.5t134 59.5q84 0 134 -59t50 -158zM961 207
q0 -98 -52.5 -158t-133.5 -60t-132 58.5t-51 157.5q0 100 51 159.5t134 59.5q84 0 134 -59t50 -158zM295 492q0 126 -73 126q-72 0 -72 -124q0 -126 73 -126q35 0 53.5 33t18.5 91zM1273 205q0 126 -73 126q-72 0 -72 -124q0 -126 73 -126q35 0 53.5 33t18.5 91zM849 205
q0 126 -73 126q-72 0 -72 -124q0 -126 73 -126q35 0 53.5 33t18.5 91z" />
    <glyph glyph-name="guilsinglleft" unicode="&#x2039;" horiz-adv-x="376" 
d="M336 0h-143l-163 262l163 263h143l-158 -262z" />
    <glyph glyph-name="guilsinglright" unicode="&#x203a;" horiz-adv-x="376" 
d="M346 263l-163 -263h-143l158 262l-158 263h143z" />
    <glyph glyph-name="fraction" unicode="&#x2044;" horiz-adv-x="493" 
d="M555 700l-469 -700h-148l469 700h148z" />
    <glyph glyph-name="fraction" unicode="&#x2215;" horiz-adv-x="493" 
d="M555 700l-469 -700h-148l469 700h148z" />
    <glyph glyph-name="Euro" unicode="&#x20ac;" horiz-adv-x="638" 
d="M203 470h203v-92h-218q-1 -9 -1 -29q0 -19 1 -28h218v-92h-203q37 -108 142 -108q48 0 78.5 22.5t63.5 74.5l114 -68q-44 -74 -104 -117.5t-154 -43.5q-138 0 -215.5 98.5t-77.5 262.5q0 168 80.5 264.5t214.5 96.5q99 0 153.5 -42.5t94.5 -134.5l-118 -57
q-27 55 -55 78.5t-77 23.5q-105 0 -140 -109z" />
    <glyph glyph-name="trademark" unicode="&#x2122;" horiz-adv-x="830" 
d="M310 618h-98v-312h-95v312h-98v82h291v-82zM789 306h-89v195q0 7 1 22t1 22q-3 -7 -9.5 -20.5t-8.5 -17.5l-103 -213l-101 213q-2 4 -17 37q2 -28 2 -43v-195h-89v394h94l85 -170q23 -44 28 -65q6 22 28 65l83 170h95v-394z" />
    <glyph glyph-name="partialdiff" unicode="&#x2202;" horiz-adv-x="440" 
d="M374 224q11 -15 -2 -36l-153 -203l-150 203q-15 20 -3 36q14 21 40 13l49 -14v254l-49 -14q-26 -8 -40 13q-12 16 3 36l150 203l153 -203q13 -21 2 -36q-15 -21 -42 -13l-47 14v-254l47 14q27 8 42 -13z" />
    <glyph glyph-name="product" unicode="&#x220f;" 
d="M780 350l-168 -132q-17 -9 -28 -2q-18 11 -12 36l20 45h-141v-124l48 19q22 7 33 -11q7 -12 -3 -28l-129 -168l-132 168q-9 16 -2 28q12 18 35 11l46 -19v124h-139l20 -46q7 -23 -12 -35q-11 -7 -27 2l-169 132l169 129q15 10 27 3q18 -10 12 -33l-20 -48h139v126
l-46 -19q-22 -8 -35 11q-7 12 2 28l132 168l129 -168q10 -16 3 -28q-11 -18 -33 -11l-48 19v-126h141l-20 48q-6 23 12 33q12 7 28 -3z" />
    <glyph glyph-name="summation" unicode="&#x2211;" 
d="M780 350l-168 -132q-17 -9 -28 -2q-18 11 -12 36l20 45h-141v-124l48 19q22 7 33 -11q7 -12 -3 -28l-129 -168l-132 168q-9 16 -2 28q12 18 35 11l46 -19v124h-139l20 -46q7 -23 -12 -35q-11 -7 -27 2l-169 132l169 129q15 10 27 3q18 -10 12 -33l-20 -48h139v126
l-46 -19q-22 -8 -35 11q-7 12 2 28l132 168l129 -168q10 -16 3 -28q-11 -18 -33 -11l-48 19v-126h141l-20 48q-6 23 12 33q12 7 28 -3z" />
    <glyph glyph-name="minus" unicode="&#x2212;" 
d="M780 350l-168 -132q-17 -9 -28 -2q-18 11 -12 36l20 45h-141v-124l48 19q22 7 33 -11q7 -12 -3 -28l-129 -168l-132 168q-9 16 -2 28q12 18 35 11l46 -19v124h-139l20 -46q7 -23 -12 -35q-11 -7 -27 2l-169 132l169 129q15 10 27 3q18 -10 12 -33l-20 -48h139v126
l-46 -19q-22 -8 -35 11q-7 12 2 28l132 168l129 -168q10 -16 3 -28q-11 -18 -33 -11l-48 19v-126h141l-20 48q-6 23 12 33q12 7 28 -3z" />
    <glyph glyph-name="radical" unicode="&#x221a;" horiz-adv-x="677" 
d="M641 700l-281 -700h-149l-173 340h149l40 -81q36 -75 58 -129q5 15 48 133l163 437h145z" />
    <glyph glyph-name="infinity" unicode="&#x221e;" 
d="M780 350l-168 -132q-17 -9 -28 -2q-18 11 -12 36l20 45h-141v-124l48 19q22 7 33 -11q7 -12 -3 -28l-129 -168l-132 168q-9 16 -2 28q12 18 35 11l46 -19v124h-139l20 -46q7 -23 -12 -35q-11 -7 -27 2l-169 132l169 129q15 10 27 3q18 -10 12 -33l-20 -48h139v126
l-46 -19q-22 -8 -35 11q-7 12 2 28l132 168l129 -168q10 -16 3 -28q-11 -18 -33 -11l-48 19v-126h141l-20 48q-6 23 12 33q12 7 28 -3z" />
    <glyph glyph-name="integral" unicode="&#x222b;" horiz-adv-x="562" 
d="M493 0h-138v33q-42 -44 -111 -44q-90 0 -147 70t-57 210q0 120 54 193.5t150 73.5q66 0 111 -41v30h138v-525zM355 163v198q-33 45 -93 45q-82 0 -82 -134q0 -153 90 -153q51 0 85 44z" />
    <glyph glyph-name="approxequal" unicode="&#x2248;" horiz-adv-x="440" 
d="M374 224q11 -15 -2 -36l-153 -203l-150 203q-15 20 -3 36q14 21 40 13l49 -14v477h130v-477l47 14q27 8 42 -13z" />
    <glyph glyph-name="notequal" unicode="&#x2260;" 
d="M780 350l-168 -132q-17 -9 -28 -2q-18 11 -12 36l20 45h-141v-124l48 19q22 7 33 -11q7 -12 -3 -28l-129 -168l-132 168q-9 16 -2 28q12 18 35 11l46 -19v124h-139l20 -46q7 -23 -12 -35q-11 -7 -27 2l-169 132l169 129q15 10 27 3q18 -10 12 -33l-20 -48h139v126
l-46 -19q-22 -8 -35 11q-7 12 2 28l132 168l129 -168q10 -16 3 -28q-11 -18 -33 -11l-48 19v-126h141l-20 48q-6 23 12 33q12 7 28 -3z" />
    <glyph glyph-name="lessequal" unicode="&#x2264;" 
d="M780 350l-168 -132q-17 -9 -28 -2q-18 11 -12 36l20 45h-141v-124l48 19q22 7 33 -11q7 -12 -3 -28l-129 -168l-132 168q-9 16 -2 28q12 18 35 11l46 -19v124h-139l20 -46q7 -23 -12 -35q-11 -7 -27 2l-169 132l169 129q15 10 27 3q18 -10 12 -33l-20 -48h139v126
l-46 -19q-22 -8 -35 11q-7 12 2 28l132 168l129 -168q10 -16 3 -28q-11 -18 -33 -11l-48 19v-126h141l-20 48q-6 23 12 33q12 7 28 -3z" />
    <glyph glyph-name="greaterequal" unicode="&#x2265;" 
d="M780 350l-168 -132q-17 -9 -28 -2q-18 11 -12 36l20 45h-141v-124l48 19q22 7 33 -11q7 -12 -3 -28l-129 -168l-132 168q-9 16 -2 28q12 18 35 11l46 -19v124h-139l20 -46q7 -23 -12 -35q-11 -7 -27 2l-169 132l169 129q15 10 27 3q18 -10 12 -33l-20 -48h139v126
l-46 -19q-22 -8 -35 11q-7 12 2 28l132 168l129 -168q10 -16 3 -28q-11 -18 -33 -11l-48 19v-126h141l-20 48q-6 23 12 33q12 7 28 -3z" />
    <glyph glyph-name="lozenge" unicode="&#x25ca;" 
d="M780 350l-168 -132q-17 -9 -28 -2q-18 11 -12 36l20 45h-141v-124l48 19q22 7 33 -11q7 -12 -3 -28l-129 -168l-132 168q-9 16 -2 28q12 18 35 11l46 -19v124h-139l20 -46q7 -23 -12 -35q-11 -7 -27 2l-169 132l169 129q15 10 27 3q18 -10 12 -33l-20 -48h139v126
l-46 -19q-22 -8 -35 11q-7 12 2 28l132 168l129 -168q10 -16 3 -28q-11 -18 -33 -11l-48 19v-126h141l-20 48q-6 23 12 33q12 7 28 -3z" />
    <glyph glyph-name="apple" unicode="&#xf8ff;" 
d="M780 350l-168 -132q-17 -9 -28 -2q-18 11 -12 36l20 45h-141v-124l48 19q22 7 33 -11q7 -12 -3 -28l-129 -168l-132 168q-9 16 -2 28q12 18 35 11l46 -19v124h-139l20 -46q7 -23 -12 -35q-11 -7 -27 2l-169 132l169 129q15 10 27 3q18 -10 12 -33l-20 -48h139v126
l-46 -19q-22 -8 -35 11q-7 12 2 28l132 168l129 -168q10 -16 3 -28q-11 -18 -33 -11l-48 19v-126h141l-20 48q-6 23 12 33q12 7 28 -3z" />
    <glyph glyph-name="NUL" horiz-adv-x="0" 
 />
    </font>
</defs>
</svg>
